# Blender v2.79 (sub 0) OBJ File: 'Soldier.blend'
# www.blender.org
o soldier_rfoot_mesh0.004
v 5.403696 20.759874 -7.568756
v 3.728896 20.157360 -9.031554
v 3.310197 22.203197 -3.743247
v 4.147594 22.203197 -3.743248
v 3.589330 18.170582 -8.070639
v 4.426730 19.012177 -6.991477
v 3.728897 14.455912 -2.853424
v 2.472797 14.259855 -4.465620
v 3.310197 19.350895 -5.847764
v 2.612363 22.152988 -3.865147
v 3.310196 21.310619 -3.660763
v 1.774963 20.659454 -7.812554
v 2.472795 19.012177 -6.991477
v 0.797998 14.895685 -3.434376
v 1.914531 15.477292 -1.120733
v -3.389002 14.011870 3.062710
v -2.272467 9.551972 -0.634726
v -0.984691 11.288237 -2.728679
v -1.853768 14.686832 0.774838
v -3.389001 14.509482 -0.623747
v -2.551600 11.442181 -4.817480
v -5.063800 13.969603 0.942573
v -4.505533 10.170238 -2.772054
v 1.774965 11.170341 -5.184951
v 0.937566 9.860566 -0.438362
v 3.310198 10.332497 -3.028614
v -4.645103 21.283354 -1.906006
v -2.970303 21.413990 -0.533185
v -3.668135 19.524681 -0.624185
v -4.645101 19.195717 -1.943681
v -5.622068 22.730995 3.392874
v -6.459467 21.430813 -0.558336
v -4.645102 20.014305 0.914396
v -4.645103 21.752274 3.527612
v -5.622066 19.270439 -0.534326
v -4.505536 22.730995 3.392874
v -3.528569 22.459881 3.331282
v -0.050741 -2.558425 -0.455439
v -1.489016 -2.712874 1.434349
v -1.586642 0.130683 0.940787
v -0.423387 -0.172232 -0.619769
v 4.589561 6.607555 4.059672
v 5.224280 7.790663 3.903646
v 4.877395 8.227705 4.739764
v 4.176752 6.539676 5.027076
v 5.083067 6.857175 4.034209
v 2.451353 6.996106 4.235842
v 3.691872 6.493924 13.764204
v 5.444746 6.401387 13.629906
v 5.243178 4.609416 13.642645
v 4.892528 4.199806 4.114371
v 3.490303 4.701952 13.776945
v 2.260813 4.338740 4.316003
v 3.003198 7.052336 4.056434
v 2.491400 7.805846 5.515968
v 2.700430 8.672486 5.330182
v 3.513331 8.762991 3.776462
v 4.121552 8.137498 3.200334
v 3.867850 6.909138 3.341678
v 2.739158 6.258922 1.496402
v 4.159452 6.258798 0.928340
v 3.986708 4.935826 0.538037
v 2.748325 4.999580 1.069235
v 1.643167 0.224889 -0.066105
v 1.621641 1.369574 2.794440
v 2.049251 -1.885873 3.015016
v 1.922289 -2.603885 0.687523
v 3.022337 4.166614 -1.828882
v 4.845432 2.780168 -3.149067
v 2.891499 2.101979 -3.534855
v 3.535465 8.491478 5.964049
v 2.951778 7.692715 5.973973
v -3.415054 1.120460 2.092376
v -2.314591 4.557803 5.469383
v -3.692057 6.472094 6.295639
v -5.094334 2.886570 2.616116
v 4.366643 7.571653 7.177992
v 4.493962 8.099201 6.331878
v 2.892930 8.875633 6.033980
v 2.653278 8.084313 7.433960
v -2.412034 7.934176 -4.475731
v -3.807700 8.051022 -3.488199
v 1.077132 8.545265 -0.653241
v 2.612366 8.086491 -2.881100
v 4.433814 7.134613 6.011665
v 4.345866 6.848213 6.872432
v -0.992187 1.445637 1.151411
v -2.562349 4.648040 -3.142103
v -4.131081 4.628214 -1.001634
v 1.543653 8.717547 6.127589
v 1.367662 8.190001 7.104511
v -0.371861 1.764469 -2.082917
v -0.458100 4.242234 -3.697288
v 1.914532 4.770505 -3.005731
v 2.641609 7.210231 5.493719
v -3.753922 7.249054 4.336722
v 1.371078 7.534439 5.616631
v -0.514594 -1.982039 3.745645
v -0.421972 1.260189 3.224436
v -2.943985 5.710993 3.521229
v 1.774965 6.261318 0.401441
v 2.612366 3.985307 1.340580
v 1.214772 7.127467 6.600875
v 2.372971 6.539485 7.031829
v -2.702678 6.072419 0.398022
v -2.415386 8.152686 -0.769926
v -4.028494 4.181497 1.358850
v -4.534207 1.720995 -1.396155
v -0.458101 8.482492 -0.323410
v -0.597667 7.875893 -4.837148
v 3.829255 5.681076 0.151456
v 2.755007 7.497419 -0.350200
v -2.286966 3.563150 2.194277
v -0.299930 4.233895 1.979872
v 4.982107 8.039850 -0.861592
v -0.179789 6.411959 0.949515
v -2.969730 0.159191 -0.141052
v 0.950775 1.479443 0.860187
v 3.589333 3.133850 0.175441
v 2.474355 1.530460 0.461559
v 3.858263 0.650048 -1.002236
v 1.077133 7.953263 -4.421215
v 2.124417 0.256864 -2.123270
v 5.889503 5.718588 -0.014671
v 5.124565 1.867976 -0.765382
v 0.262213 -2.779326 2.123142
vt 0.311700 0.162400
vt 0.321700 0.049000
vt 0.261700 0.049000
vt 0.265000 0.162400
vt 0.951700 0.451000
vt 0.935000 0.456200
vt 0.905000 0.353100
vt 0.935000 0.332500
vt 0.435000 0.456200
vt 0.455000 0.451000
vt 0.435000 0.337600
vt 0.405000 0.353100
vt 0.138300 0.482000
vt 0.165000 0.482000
vt 0.145000 0.342800
vt 0.188300 0.353100
vt 0.665000 0.482000
vt 0.645000 0.482000
vt 0.658300 0.342800
vt 0.688300 0.353100
vt 0.975000 0.317000
vt 0.971700 0.440700
vt 0.625000 0.476800
vt 0.611700 0.332500
vt 0.111700 0.332500
vt 0.125000 0.476800
vt 0.471700 0.440700
vt 0.475000 0.317000
vt 0.568300 0.528400
vt 0.608300 0.533500
vt 0.598300 0.853100
vt 0.555000 0.853100
vt 0.518300 0.847900
vt 0.528300 0.523200
vt 0.035000 0.889200
vt 0.058300 0.889200
vt 0.078300 0.894300
vt 0.055000 0.889200
vt 0.098300 0.853100
vt 0.108300 0.533500
vt 0.068300 0.528400
vt 0.058300 0.847900
vt 0.591700 0.409800
vt 0.571700 0.420100
vt 0.555000 0.404600
vt 0.071700 0.420100
vt 0.091700 0.409800
vt 0.055000 0.404600
vt 0.028300 0.523200
vt 0.018300 0.847900
vt 0.345000 0.703600
vt 0.335000 0.518000
vt 0.298300 0.533500
vt 0.308300 0.708800
vt 0.838300 0.703600
vt 0.808300 0.708800
vt 0.798300 0.533500
vt 0.828300 0.512900
vt 0.378300 0.703600
vt 0.378300 0.492300
vt 0.878300 0.492300
vt 0.878300 0.703600
vt 0.788300 0.533500
vt 0.778300 0.703600
vt 0.741700 0.703600
vt 0.748300 0.518000
vt 0.255000 0.518000
vt 0.241700 0.703600
vt 0.278300 0.703600
vt 0.288300 0.533500
vt 0.208300 0.497400
vt 0.211700 0.703600
vt 0.711700 0.703600
vt 0.708300 0.497400
vt 0.828300 0.425300
vt 0.861700 0.420100
vt 0.255000 0.430400
vt 0.221700 0.420100
vt 0.291700 0.425300
vt 0.788300 0.420100
vt 0.721700 0.420100
vt 0.751700 0.430400
vt 0.361700 0.420100
vt 0.331700 0.425300
vt 0.711700 0.260300
vt 0.685000 0.219100
vt 0.715000 0.224200
vt 0.961700 0.280900
vt 0.891700 0.219100
vt 0.915000 0.172700
vt 0.341700 0.162400
vt 0.331700 0.146900
vt 0.311700 0.167500
vt 0.835000 0.322200
vt 0.871700 0.291200
vt 0.788300 0.234500
vt 0.788300 0.317000
vt 0.735000 0.322200
vt 0.218300 0.291200
vt 0.241700 0.322200
vt 0.221700 0.224200
vt 0.371700 0.291200
vt 0.338300 0.322200
vt 0.875000 0.270600
vt 0.858300 0.219100
vt 0.901700 0.317000
vt 0.925000 0.301500
vt 0.361700 0.219100
vt 0.291700 0.239700
vt 0.285000 0.322200
vt 0.878300 0.141800
vt 0.838300 0.162400
vt 0.211700 0.260300
vt 0.191700 0.203600
vt 0.375000 0.270600
vt 0.268300 0.167500
vt 0.235000 0.162400
vt 0.248300 0.146900
vt 0.205000 0.141800
vt 0.718300 0.291200
vt 0.705000 0.141800
vt 0.748300 0.146900
vt 0.771700 0.152100
vt 0.731700 0.162400
vt 0.661700 0.311900
vt 0.801700 0.152100
vt 0.151700 0.306700
vt 0.191700 0.322200
vt 0.625000 0.296400
vt 0.461700 0.280900
vt 0.415000 0.172700
vt 0.398300 0.219100
vt 0.428300 0.301500
vt 0.831700 0.146900
vt 0.671700 0.167500
vt 0.171700 0.167500
vt 0.401700 0.317000
vt 0.125000 0.296400
vt 0.691700 0.322200
vt 0.201700 0.971600
vt 0.238300 0.971600
vt 0.745000 0.971600
vt 0.728300 0.971600
vt 0.738300 0.909800
vt 0.721700 0.914900
vt 0.701700 0.760300
vt 0.741700 0.750000
vt 0.245000 0.894300
vt 0.221700 0.914900
vt 0.245000 0.971600
vt 0.261700 0.971600
vt 0.245000 0.940700
vt 0.228300 0.971600
vt 0.281700 0.976800
vt 0.265000 0.909800
vt 0.281700 0.755200
vt 0.241700 0.755200
vt 0.241700 0.904600
vt 0.738300 0.971600
vt 0.701700 0.971600
vt 0.765000 0.909800
vt 0.781700 0.976800
vt 0.781700 0.755200
vt 0.201700 0.760300
vt 0.845000 0.976800
vt 0.808300 0.971600
vt 0.821700 0.909800
vt 0.841700 0.909800
vt 0.841700 0.755200
vt 0.805000 0.755200
vt 0.368300 0.971600
vt 0.385000 0.971600
vt 0.345000 0.909800
vt 0.345000 0.940700
vt 0.365000 0.909800
vt 0.345000 0.899500
vt 0.885000 0.971600
vt 0.868300 0.971600
vt 0.345000 0.976800
vt 0.345000 0.976800
vt 0.885000 0.760300
vt 0.865000 0.909800
vt 0.321700 0.909800
vt 0.345000 0.755200
vt 0.305000 0.755200
vt 0.321700 0.966500
vt 0.308300 0.971600
vt 0.385000 0.760300
vt 0.808300 0.038700
vt 0.831700 0.038700
vt 0.831700 0.116000
vt 0.808300 0.121100
vt 0.645000 0.512900
vt 0.615000 0.512900
vt 0.135000 0.512900
vt 0.135000 0.574700
vt 0.155000 0.574700
vt 0.171700 0.518000
vt 0.248300 0.116000
vt 0.265000 0.162400
vt 0.261700 0.049000
vt 0.251700 0.038700
vt 0.638300 0.574700
vt 0.655000 0.574700
vt 0.635000 0.574700
vt 0.628300 0.569600
vt 0.968300 0.549000
vt 0.955000 0.554100
vt 0.935000 0.502600
vt 0.958300 0.492300
vt 0.671700 0.518000
vt 0.971700 0.549000
vt 0.981700 0.549000
vt 0.128300 0.569600
vt 0.115000 0.512900
vt 0.435000 0.502600
vt 0.455000 0.554100
vt 0.471700 0.549000
vt 0.461700 0.492300
vt 0.321700 0.049000
vt 0.311700 0.162400
vt 0.331700 0.116000
vt 0.331700 0.038700
vt 0.988300 0.482000
vt 0.328300 0.126300
vt 0.755000 0.126300
vt 0.768300 0.167500
vt 0.765000 0.162400
vt 0.488300 0.482000
vt 0.481700 0.549000
vt 0.748300 0.116000
vt 0.751700 0.038700
vt 0.765000 0.038700
vt 0.768300 0.116000
vt 0.000000 0.000000
vn 0.8428 0.5363 0.0459
vn -0.1984 0.7987 0.5681
vn -0.4322 -0.4056 0.8054
vn 0.6060 -0.3554 0.7116
vn -0.3525 0.5095 0.7849
vn -0.3466 0.6446 0.6814
vn -0.5869 0.5813 0.5636
vn -0.6270 0.3072 0.7159
vn 0.0233 -0.0904 -0.9956
vn 0.6996 0.1069 -0.7065
vn -0.5281 -0.7136 -0.4603
vn 0.4371 0.8977 0.0559
vn -0.7877 -0.4127 0.4573
vn -0.7105 -0.7036 0.0101
vn 0.9152 0.3645 0.1720
vn 0.4268 0.5809 -0.6931
vn -0.3896 -0.8815 -0.2670
vn 0.8484 -0.4265 0.3135
vn 0.9917 -0.0298 0.1250
vn 0.4111 -0.7550 -0.5108
vn 0.5746 0.6281 -0.5247
vn -0.3650 0.4864 0.7938
vn 0.3336 0.6486 0.6841
vn 0.4227 0.5769 0.6989
vn 0.6318 -0.7444 -0.2161
vn 0.9646 0.1078 -0.2406
vn -0.6250 -0.5521 0.5519
vn -0.5639 -0.7096 -0.4225
vn 0.0976 0.6155 -0.7821
vn 0.2541 0.3793 -0.8897
vn -0.6012 -0.4880 -0.6328
vn -0.7660 -0.3330 -0.5499
vn 0.2371 -0.6568 0.7158
vn 0.1163 -0.6002 0.7913
vn 0.7788 -0.3995 -0.4836
vn 0.3914 0.9167 0.0799
vn 0.2257 0.7651 -0.6030
vn -0.0675 0.9012 -0.4281
vn -0.7365 0.6518 0.1811
vn -0.6042 -0.7075 -0.3666
vn -0.7924 -0.5943 -0.1376
vn -0.1927 0.8995 -0.3921
vn 0.2725 -0.5149 -0.8128
vn 0.1289 0.1383 -0.9820
vn -0.0565 0.2797 0.9584
vn 0.0354 0.1007 0.9943
vn 0.6468 -0.7575 -0.0888
vn 0.6824 0.6956 -0.2248
vn -0.3914 -0.3264 -0.8604
vn -0.8115 0.5834 0.0316
vn -0.7987 0.5669 0.2018
vn -0.4945 0.0794 -0.8655
vn 0.5333 0.2364 0.8122
vn 0.7588 0.6388 -0.1274
vn 0.8792 0.4648 0.1048
vn 0.4442 0.0911 0.8913
vn 0.0972 0.6958 0.7116
vn 0.4129 0.0349 -0.9101
vn -0.3874 0.1542 0.9089
vn -0.2709 0.9544 -0.1250
vn -0.1837 0.3366 0.9236
vn 0.0927 -0.1575 -0.9832
vn 0.3975 -0.3202 -0.8599
vn -0.7008 0.1321 0.7010
vn 0.6884 0.0084 -0.7253
vn 0.4768 -0.0326 -0.8784
vn 0.2736 -0.3597 -0.8921
vn -0.9018 -0.1965 0.3849
vn -0.0724 -0.3063 0.9492
vn -0.5162 -0.8539 -0.0668
vn -0.0731 0.2228 0.9721
vn -0.3121 -0.3395 -0.8873
vn -0.6040 0.6846 -0.4080
vn -0.1688 -0.4162 -0.8935
vn -0.1561 -0.2316 -0.9602
vn 0.4180 -0.2125 -0.8833
vn 0.5968 0.3642 0.7150
vn 0.5216 0.2060 0.8280
vn -0.5148 0.3970 0.7598
vn -0.6426 -0.1938 -0.7413
vn -0.7827 -0.3371 -0.5231
vn 0.6224 0.4998 0.6023
vn 0.2836 0.3815 0.8798
vn 0.1624 0.4241 0.8909
vn -0.4412 -0.8785 -0.1834
vn 0.4041 0.4355 0.8044
vn 0.5444 -0.0934 0.8336
vn 0.3094 -0.3841 0.8699
vn 0.7779 -0.4315 0.4568
vn 0.1465 -0.6474 0.7480
vn -0.3040 -0.4772 -0.8246
vn 0.0493 -0.7239 -0.6882
vn 0.1382 -0.9594 0.2460
vn -0.3045 -0.0833 -0.9489
vn 0.0405 0.9598 -0.2779
vn 0.4651 0.8513 0.2429
vn 0.2840 0.5559 0.7812
vn 0.2224 -0.5871 -0.7784
vn 0.5117 -0.6941 0.5063
vn 0.5666 -0.7099 0.4184
vn 0.0986 -0.6092 -0.7868
vn -0.3616 0.0491 0.9310
vn -0.1257 0.6504 0.7491
vn -0.3874 -0.6620 0.6416
vn -0.8774 -0.4751 -0.0660
vn -0.7869 0.0653 0.6136
vn -0.8586 -0.5025 0.1015
vn -0.1082 0.8399 0.5318
vn 0.8075 0.5136 -0.2901
vn 0.8625 -0.4162 -0.2880
vn 0.5705 -0.1404 -0.8092
vn 0.1443 -0.1658 -0.9755
vn 0.0491 -0.0651 -0.9967
vn 0.8214 -0.5690 -0.0405
vn -0.3840 0.4808 0.7883
vn -0.3289 -0.4747 0.8164
vn -0.3168 -0.2478 0.9155
vn -0.2151 -0.4354 0.8742
vn -0.8001 0.0913 0.5928
vn 0.4418 0.5289 0.7246
vn -0.5325 -0.8451 -0.0487
vn -0.1280 0.4338 0.8919
vn 0.8146 -0.0405 0.5786
vn -0.0896 -0.6395 -0.7636
vn -0.9515 -0.2901 -0.1029
vn 0.8304 0.3622 0.4233
vn 0.5823 -0.7046 -0.4055
vn -0.7425 -0.6317 -0.2229
vn -0.8234 0.5508 0.1366
vn -0.2449 0.7831 -0.5716
vn -0.8299 -0.0658 -0.5540
vn 0.7953 -0.2982 -0.5278
vn 0.2628 0.4935 0.8291
vn 0.1652 0.3085 0.9368
vn 0.5905 0.1568 0.7917
vn 0.0148 0.9383 -0.3455
vn 0.0823 0.6965 0.7128
vn -0.0174 0.3698 0.9290
vn 0.8346 0.2701 -0.4801
vn 0.7508 -0.5525 -0.3620
vn 0.0283 -0.4089 -0.9121
vn -0.0236 -0.0066 0.9997
vn 0.0659 -0.9698 0.2350
s 1
f 65/1/1 99/2/2 98/3/3 66/4/4
f 91/5/5 90/6/6 96/7/7 75/8/8
f 90/9/6 97/10/9 100/11/10 96/12/7
f 59/13/11 58/14/12 111/15/13
f 58/14/12 112/16/14 111/15/13
f 58/17/12 43/18/15 115/19/16
f 58/17/12 115/19/16 112/20/14
f 74/21/17 103/22/18 91/5/5 75/8/8
f 115/19/16 43/18/15 42/23/19 124/24/20
f 124/25/20 42/26/19 59/13/11 111/15/13
f 103/27/18 74/28/17 100/11/10 97/10/9
f 46/29/21 47/30/22 48/31/23 49/32/24
f 49/32/24 50/33/25 51/34/26 46/29/21
f 50/35/25 49/36/24 48/37/23 52/38/27
f 48/39/23 47/40/22 53/41/28 52/42/27
f 60/43/29 61/44/30 62/45/31 63/46/32
f 61/44/30 46/29/21 51/34/26 62/45/31
f 53/41/28 47/40/22 60/47/29 63/46/32
f 63/46/32 62/48/31 51/49/26 53/41/28
f 60/43/29 47/30/22 46/29/21 61/44/30
f 52/42/27 53/41/28 51/49/26 50/50/25
f 16/51/33 17/52/34 18/53/35 19/54/36
f 20/55/37 19/56/36 18/57/35 21/58/38
f 22/59/39 23/60/40 17/52/34 16/51/33
f 20/55/37 21/58/38 23/61/40 22/62/39
f 18/63/41 14/64/42 8/65/43 24/66/44
f 25/67/45 15/68/46 14/69/42 18/70/41
f 15/68/46 25/67/45 26/71/47 7/72/48
f 8/65/43 7/73/48 26/74/47 24/66/44
f 81/75/49 82/76/50 23/61/51 21/58/52
f 83/77/53 84/78/54 26/71/55 25/67/56
f 18/63/57 24/66/58 21/58/52
f 17/52/59 25/67/56 18/53/60
f 25/67/56 109/79/61 83/77/53
f 81/75/49 21/58/52 110/80/62
f 26/74/55 84/81/54 122/82/63 24/66/58
f 21/58/52 24/66/58 122/82/63 110/80/62
f 17/52/59 23/60/51 82/83/50 106/84/64
f 25/67/56 17/52/59 106/84/64 109/79/61
f 68/85/65 69/86/66 70/87/67
f 74/88/17 76/89/68 73/90/69
f 73/91/69 40/92/70 87/93/71
f 88/94/72 89/95/73 82/76/50 81/75/49
f 70/87/67 92/96/74 93/97/75 94/98/76
f 68/99/65 101/100/77 102/101/78
f 82/83/50 89/102/73 105/103/79 106/84/64
f 107/104/80 108/105/81 76/89/68
f 96/106/7 107/104/80 76/89/68 75/107/8
f 68/99/65 84/78/54 83/77/53 101/100/77
f 113/108/82 73/91/69 87/93/71 114/109/83
f 116/110/84 114/109/83 102/101/78 101/100/77
f 73/111/69 117/112/85 40/92/70
f 93/97/75 92/96/74 108/105/81 88/94/72
f 68/113/65 102/101/78 119/114/86
f 105/103/79 89/102/73 107/115/80 113/108/82
f 93/97/75 88/94/72 81/75/49 110/80/62
f 109/79/61 116/110/84 101/100/77 83/77/53
f 114/109/83 87/93/71 118/116/87
f 120/117/88 64/118/89 121/119/90
f 118/116/87 64/118/89 120/117/88
f 84/81/54 68/120/65 94/98/76 122/82/63
f 121/121/90 64/122/89 41/123/91 123/124/92
f 68/85/65 115/125/16 69/86/66
f 94/98/76 93/97/75 110/80/62 122/82/63
f 94/98/76 68/120/65 70/87/67
f 41/126/91 117/112/85 108/105/81 92/96/74
f 68/113/65 119/114/86 111/127/13 112/128/14
f 88/94/72 108/105/81 89/95/73
f 124/129/20 69/86/66 115/125/16
f 113/108/82 114/109/83 116/110/84 105/103/79
f 70/87/67 123/124/92 41/123/91 92/96/74
f 74/130/17 73/131/69 113/132/82 100/133/10
f 114/109/83 118/116/87 120/117/88 102/101/78
f 108/105/81 73/111/69 76/89/68
f 41/126/91 40/134/70 117/112/85
f 121/121/90 69/86/66 125/135/93
f 125/136/93 119/114/86 121/119/90
f 121/121/90 123/124/92 70/87/67 69/86/66
f 105/103/79 116/110/84 109/79/61 106/84/64
f 96/137/7 100/133/10 113/132/82 107/115/80
f 125/136/93 124/138/20 111/127/13 119/114/86
f 120/117/88 121/119/90 119/114/86 102/101/78
f 124/129/20 125/135/93 69/86/66
f 108/105/81 117/112/85 73/111/69
f 74/88/17 75/107/8 76/89/68
f 107/104/80 89/95/73 108/105/81
f 68/85/65 112/139/14 115/125/16
f 1/140/94 2/141/95 3/142/96 4/143/97
f 5/144/98 6/145/99 7/146/100 8/147/101
f 9/148/102 6/149/99 1/140/94
f 3/150/96 10/151/103 11/152/104 4/153/97
f 12/154/105 13/155/106 9/148/102
f 9/148/102 13/155/106 14/156/107 15/157/108
f 9/158/102 1/140/94 4/153/97 11/152/104
f 6/145/99 5/144/98 2/159/95 1/160/94
f 13/161/106 12/162/105 2/159/95 5/144/98
f 10/151/103 12/154/105 9/158/102 11/152/104
f 14/163/107 13/161/106 5/144/98 8/147/101
f 3/150/96 2/141/95 12/154/105 10/151/103
f 6/149/99 9/148/102 15/157/108 7/164/100
f 27/165/109 28/166/110 29/167/111 30/168/112
f 20/169/113 30/168/112 29/167/111 19/170/114
f 31/171/115 32/172/116 33/173/117 34/174/118
f 32/172/116 35/175/119 33/176/117
f 32/177/116 31/178/115 36/179/120 27/180/109
f 22/181/121 35/182/119 30/168/112 20/169/113
f 32/177/116 27/165/109 30/168/112 35/182/119
f 29/183/111 33/176/117 16/184/122 19/185/114
f 36/179/120 31/171/115 34/174/118 37/186/123
f 28/187/110 27/180/109 36/179/120 37/186/123
f 33/176/117 35/175/119 22/188/121 16/184/122
f 28/187/110 33/176/117 29/183/111
f 33/173/117 28/187/110 37/186/123 34/174/118
f 38/189/124 39/190/125 40/191/70 41/192/91
f 42/23/19 43/18/15 44/193/126 45/194/127
f 54/195/128 55/196/129 56/197/130 57/198/131
f 57/198/131 58/14/12 59/13/11 54/195/128
f 64/199/89 65/200/1 66/201/4 67/202/132
f 71/203/133 56/204/130 55/205/129 72/206/134
f 77/207/135 78/208/136 79/209/137 80/210/138
f 58/17/12 57/211/131 44/193/126 43/18/15
f 85/212/139 78/208/136 77/207/135 86/213/140
f 80/210/138 79/209/137 90/6/6 91/5/5
f 72/214/134 55/196/129 54/195/128 45/215/127
f 79/216/137 78/217/136 85/218/139 95/219/141
f 97/10/9 90/9/6 79/216/137 95/219/141
f 98/220/3 99/221/2 40/222/70 39/223/125
f 80/210/138 91/5/5 103/22/18 104/224/142
f 57/211/131 56/204/130 71/203/133 44/193/126
f 99/221/2 87/93/71 40/225/70
f 64/226/89 118/227/87 65/228/1
f 104/229/142 103/27/18 97/10/9 95/219/141
f 86/230/140 104/229/142 95/219/141 85/218/139
f 65/200/1 118/116/87 87/93/71 99/221/2
f 64/231/89 67/232/132 38/233/124 41/234/91
f 71/203/133 72/206/134 45/194/127 44/193/126
f 104/224/142 86/213/140 77/207/135 80/210/138
f 45/215/127 54/195/128 59/13/11 42/26/19
f 66/4/4 126/235/143 67/202/132
f 66/4/4 98/3/3 126/235/143
f 39/190/125 38/233/124 67/202/132 126/235/143
f 98/3/3 39/190/125 126/235/143
