# Blender v2.79 (sub 0) OBJ File: 'Soldier.blend'
# www.blender.org
o soldier_rfoot_mesh0.004
v 5.403697 21.542421 -3.626441
v 3.728896 21.476551 -5.207094
v 3.310197 21.590302 0.462006
v 4.147595 21.590302 0.462006
v 3.589331 19.280937 -4.983646
v 4.426730 19.702682 -3.681723
v 3.728897 14.005896 -1.351560
v 2.472797 14.373066 -2.933583
v 3.310197 19.629799 -2.491138
v 2.612363 21.584812 0.330285
v 3.310196 20.723339 0.234236
v 1.774963 21.531441 -3.889883
v 2.472796 19.702682 -3.681723
v 0.797998 14.617844 -1.747065
v 1.914531 14.373064 0.625970
v -3.389002 15.578941 1.358561
v -2.272467 10.082156 -0.573273
v -0.984691 11.280746 -2.738756
v -1.853768 15.499977 -0.998555
v -3.389001 14.854500 -2.284781
v -2.551600 11.348923 -4.895058
v -5.063800 14.882587 -0.628981
v -4.505533 10.052384 -2.818927
v 1.774965 11.679872 -4.732802
v 0.937566 9.743365 -0.414031
v 3.310198 10.195585 -2.927801
v -4.645102 21.522793 -5.114107
v -2.970302 21.536797 -3.532143
v -3.668134 19.822243 -3.648810
v -4.645101 19.199818 -4.829865
v -5.622067 21.696514 0.685339
v -6.459467 21.536795 -3.532143
v -4.645102 19.833910 -2.330508
v -4.645102 20.716272 0.562175
v -5.622066 19.578640 -3.514812
v -4.505535 21.696514 0.685339
v -3.528569 21.450581 0.555676
v 0.030384 -2.573197 0.345554
v -1.714199 -2.351503 1.949010
v -1.714199 0.287322 0.821549
v -0.318533 -0.291047 -0.436767
v 4.208811 9.841233 1.615772
v 4.854713 10.531993 0.650050
v 4.436275 11.426497 0.837663
v 3.713258 10.503613 2.268894
v 4.702658 10.016492 1.437151
v 2.063385 10.084856 1.312890
v 2.468732 17.068924 7.918890
v 4.226641 17.023392 8.001656
v 4.024730 15.857977 9.362902
v 4.505857 8.341930 3.501478
v 2.266819 15.903511 9.280139
v 1.866584 8.410295 3.377216
v 2.628767 10.021848 1.185392
v 1.991710 11.583433 1.525338
v 2.216136 12.018211 0.757305
v 3.161359 10.952326 -0.269089
v 3.817479 10.150197 -0.130544
v 3.552423 9.444248 0.881679
v 2.588853 7.548175 0.121277
v 4.053252 7.211470 -0.165242
v 3.915183 6.046302 0.580246
v 2.635215 6.408370 0.804789
v 1.635399 0.283643 0.340746
v 1.216699 1.913369 2.813587
v 1.495834 -1.045653 3.870523
v 1.774966 -2.278496 1.784602
v 3.031066 3.726985 -2.106034
v 4.845432 1.975382 -3.232492
v 2.891499 1.335777 -3.450519
v 2.992749 12.437071 1.351665
v 2.410418 11.888042 1.933275
v -3.432117 1.376881 2.212706
v -5.400379 6.858129 3.403686
v -7.682578 7.435555 2.670733
v -5.661206 2.815265 1.936793
v -6.075460 14.769946 4.402643
v -5.879136 15.157247 3.496066
v -6.538502 13.947396 2.331421
v -6.928075 13.306458 3.773986
v -2.412034 7.844552 -4.407938
v -3.807700 7.882062 -3.197016
v 1.077132 8.439380 -0.691150
v 2.612366 8.002637 -3.176012
v -4.975120 14.816186 3.817025
v -5.349903 14.544144 4.602014
v -1.017479 1.526916 1.135433
v -2.538792 4.586510 -3.100209
v -4.088463 4.268935 -1.127596
v -6.728883 12.620441 2.092154
v -7.020293 12.173155 3.081430
v -0.318534 1.666788 -2.093895
v -0.458100 4.220221 -3.706858
v 1.914532 4.543723 -3.215906
v -5.012652 13.218978 2.850844
v -7.126143 7.207840 0.655854
v -5.559956 12.122540 2.368401
v -1.155933 -1.075896 4.159637
v -0.876800 1.838197 2.965789
v -5.462774 6.413377 1.093051
v 1.774965 6.254465 0.182749
v 2.606539 4.210465 0.929202
v -5.940597 11.732882 3.296881
v -5.586543 12.575682 4.315313
v -2.947013 5.970797 0.119716
v -2.444706 8.261994 -0.639442
v -4.740303 3.743526 0.285137
v -4.390715 1.598384 -1.337455
v -0.458101 8.492075 -0.280507
v -0.597667 7.881245 -4.849093
v 3.827160 5.637091 -0.728849
v 2.762020 7.011583 -1.963705
v -3.356643 4.555022 1.625896
v -0.612305 4.619535 1.815508
v 5.006763 7.341950 -2.472152
v -0.244620 6.437253 0.866159
v -2.929108 0.172521 -0.179161
v 0.937567 1.519981 0.867867
v 3.589333 3.142103 -0.091815
v 2.472799 1.650247 0.574715
v 3.868466 0.450783 -0.608460
v 1.077133 7.987752 -4.516812
v 2.193666 -0.188409 -1.620563
v 5.888105 5.641788 -0.874660
v 5.124565 1.682718 -0.697064
v -0.109182 -2.189371 2.920241
vt 0.311700 0.162400
vt 0.321700 0.049000
vt 0.261700 0.049000
vt 0.265000 0.162400
vt 0.951700 0.451000
vt 0.935000 0.456200
vt 0.905000 0.353100
vt 0.935000 0.332500
vt 0.435000 0.456200
vt 0.455000 0.451000
vt 0.435000 0.337600
vt 0.405000 0.353100
vt 0.138300 0.482000
vt 0.165000 0.482000
vt 0.145000 0.342800
vt 0.188300 0.353100
vt 0.665000 0.482000
vt 0.645000 0.482000
vt 0.658300 0.342800
vt 0.688300 0.353100
vt 0.975000 0.317000
vt 0.971700 0.440700
vt 0.625000 0.476800
vt 0.611700 0.332500
vt 0.111700 0.332500
vt 0.125000 0.476800
vt 0.471700 0.440700
vt 0.475000 0.317000
vt 0.568300 0.528400
vt 0.608300 0.533500
vt 0.598300 0.853100
vt 0.555000 0.853100
vt 0.518300 0.847900
vt 0.528300 0.523200
vt 0.035000 0.889200
vt 0.058300 0.889200
vt 0.078300 0.894300
vt 0.055000 0.889200
vt 0.098300 0.853100
vt 0.108300 0.533500
vt 0.068300 0.528400
vt 0.058300 0.847900
vt 0.591700 0.409800
vt 0.571700 0.420100
vt 0.555000 0.404600
vt 0.071700 0.420100
vt 0.091700 0.409800
vt 0.055000 0.404600
vt 0.028300 0.523200
vt 0.018300 0.847900
vt 0.345000 0.703600
vt 0.335000 0.518000
vt 0.298300 0.533500
vt 0.308300 0.708800
vt 0.838300 0.703600
vt 0.808300 0.708800
vt 0.798300 0.533500
vt 0.828300 0.512900
vt 0.378300 0.703600
vt 0.378300 0.492300
vt 0.878300 0.492300
vt 0.878300 0.703600
vt 0.788300 0.533500
vt 0.778300 0.703600
vt 0.741700 0.703600
vt 0.748300 0.518000
vt 0.255000 0.518000
vt 0.241700 0.703600
vt 0.278300 0.703600
vt 0.288300 0.533500
vt 0.208300 0.497400
vt 0.211700 0.703600
vt 0.711700 0.703600
vt 0.708300 0.497400
vt 0.828300 0.425300
vt 0.861700 0.420100
vt 0.255000 0.430400
vt 0.221700 0.420100
vt 0.291700 0.425300
vt 0.788300 0.420100
vt 0.721700 0.420100
vt 0.751700 0.430400
vt 0.361700 0.420100
vt 0.331700 0.425300
vt 0.711700 0.260300
vt 0.685000 0.219100
vt 0.715000 0.224200
vt 0.961700 0.280900
vt 0.891700 0.219100
vt 0.915000 0.172700
vt 0.341700 0.162400
vt 0.331700 0.146900
vt 0.311700 0.167500
vt 0.835000 0.322200
vt 0.871700 0.291200
vt 0.788300 0.234500
vt 0.788300 0.317000
vt 0.735000 0.322200
vt 0.218300 0.291200
vt 0.241700 0.322200
vt 0.221700 0.224200
vt 0.371700 0.291200
vt 0.338300 0.322200
vt 0.875000 0.270600
vt 0.858300 0.219100
vt 0.901700 0.317000
vt 0.925000 0.301500
vt 0.361700 0.219100
vt 0.291700 0.239700
vt 0.285000 0.322200
vt 0.878300 0.141800
vt 0.838300 0.162400
vt 0.211700 0.260300
vt 0.191700 0.203600
vt 0.375000 0.270600
vt 0.268300 0.167500
vt 0.235000 0.162400
vt 0.248300 0.146900
vt 0.205000 0.141800
vt 0.718300 0.291200
vt 0.705000 0.141800
vt 0.748300 0.146900
vt 0.771700 0.152100
vt 0.731700 0.162400
vt 0.661700 0.311900
vt 0.801700 0.152100
vt 0.151700 0.306700
vt 0.191700 0.322200
vt 0.625000 0.296400
vt 0.461700 0.280900
vt 0.415000 0.172700
vt 0.398300 0.219100
vt 0.428300 0.301500
vt 0.831700 0.146900
vt 0.671700 0.167500
vt 0.171700 0.167500
vt 0.401700 0.317000
vt 0.125000 0.296400
vt 0.691700 0.322200
vt 0.201700 0.971600
vt 0.238300 0.971600
vt 0.745000 0.971600
vt 0.728300 0.971600
vt 0.738300 0.909800
vt 0.721700 0.914900
vt 0.701700 0.760300
vt 0.741700 0.750000
vt 0.245000 0.894300
vt 0.221700 0.914900
vt 0.245000 0.971600
vt 0.261700 0.971600
vt 0.245000 0.940700
vt 0.228300 0.971600
vt 0.281700 0.976800
vt 0.265000 0.909800
vt 0.281700 0.755200
vt 0.241700 0.755200
vt 0.241700 0.904600
vt 0.738300 0.971600
vt 0.701700 0.971600
vt 0.765000 0.909800
vt 0.781700 0.976800
vt 0.781700 0.755200
vt 0.201700 0.760300
vt 0.845000 0.976800
vt 0.808300 0.971600
vt 0.821700 0.909800
vt 0.841700 0.909800
vt 0.841700 0.755200
vt 0.805000 0.755200
vt 0.368300 0.971600
vt 0.385000 0.971600
vt 0.345000 0.909800
vt 0.345000 0.940700
vt 0.365000 0.909800
vt 0.345000 0.899500
vt 0.885000 0.971600
vt 0.868300 0.971600
vt 0.345000 0.976800
vt 0.345000 0.976800
vt 0.885000 0.760300
vt 0.865000 0.909800
vt 0.321700 0.909800
vt 0.345000 0.755200
vt 0.305000 0.755200
vt 0.321700 0.966500
vt 0.308300 0.971600
vt 0.385000 0.760300
vt 0.808300 0.038700
vt 0.831700 0.038700
vt 0.831700 0.116000
vt 0.808300 0.121100
vt 0.645000 0.512900
vt 0.615000 0.512900
vt 0.135000 0.512900
vt 0.135000 0.574700
vt 0.155000 0.574700
vt 0.171700 0.518000
vt 0.248300 0.116000
vt 0.265000 0.162400
vt 0.261700 0.049000
vt 0.251700 0.038700
vt 0.638300 0.574700
vt 0.655000 0.574700
vt 0.635000 0.574700
vt 0.628300 0.569600
vt 0.968300 0.549000
vt 0.955000 0.554100
vt 0.935000 0.502600
vt 0.958300 0.492300
vt 0.671700 0.518000
vt 0.971700 0.549000
vt 0.981700 0.549000
vt 0.128300 0.569600
vt 0.115000 0.512900
vt 0.435000 0.502600
vt 0.455000 0.554100
vt 0.471700 0.549000
vt 0.461700 0.492300
vt 0.321700 0.049000
vt 0.311700 0.162400
vt 0.331700 0.116000
vt 0.331700 0.038700
vt 0.988300 0.482000
vt 0.328300 0.126300
vt 0.755000 0.126300
vt 0.768300 0.167500
vt 0.765000 0.162400
vt 0.488300 0.482000
vt 0.481700 0.549000
vt 0.748300 0.116000
vt 0.751700 0.038700
vt 0.765000 0.038700
vt 0.768300 0.116000
vt 0.000000 0.000000
vn 0.8317 0.5524 0.0552
vn -0.2663 0.9062 0.3286
vn -0.5676 -0.2168 0.7943
vn 0.4723 -0.1618 0.8665
vn -0.9643 -0.1039 0.2437
vn -0.9896 -0.1331 -0.0545
vn -0.9861 0.1489 -0.0737
vn -0.9414 -0.1060 0.3203
vn 0.7093 -0.1295 -0.6929
vn 0.8554 0.2520 -0.4525
vn -0.4548 -0.8618 0.2247
vn 0.4241 0.6478 -0.6328
vn -0.7022 -0.2533 0.6654
vn -0.6611 -0.6895 0.2959
vn 0.9031 0.4177 -0.0993
vn 0.5356 0.1630 -0.8286
vn 0.2282 -0.9253 0.3028
vn 0.2680 0.5974 0.7558
vn 0.9816 0.1309 0.1392
vn 0.4978 -0.8506 -0.1694
vn 0.6182 0.0473 -0.7846
vn -0.4328 0.8933 0.1217
vn 0.2727 0.9615 -0.0332
vn 0.3602 0.9322 0.0360
vn 0.6482 -0.6046 0.4629
vn 0.9819 -0.0485 -0.1829
vn -0.6707 0.0192 0.7415
vn -0.5250 -0.8179 0.2356
vn 0.1654 -0.1877 -0.9682
vn 0.3307 -0.4121 -0.8490
vn -0.5437 -0.8363 -0.0711
vn -0.7151 -0.6838 -0.1449
vn 0.2152 -0.3613 0.9073
vn 0.0484 -0.2925 0.9550
vn 0.7546 -0.5356 -0.3792
vn 0.3924 0.8950 -0.2122
vn 0.2550 0.5178 -0.8166
vn 0.0031 0.7098 -0.7044
vn -0.7261 0.6861 -0.0458
vn -0.5736 -0.7910 -0.2128
vn -0.8108 -0.5213 -0.2661
vn -0.1494 0.9872 -0.0566
vn 0.3044 -0.1846 -0.9345
vn 0.1791 0.4888 -0.8538
vn -0.1328 -0.0597 0.9893
vn 0.0004 -0.2433 0.9700
vn 0.6161 -0.7393 -0.2717
vn 0.6910 0.7221 0.0336
vn -0.3983 -0.3388 -0.8524
vn -0.7895 0.6128 -0.0345
vn -0.7669 0.6311 0.1162
vn -0.5052 0.0249 -0.8626
vn 0.5703 0.1907 0.7990
vn 0.7626 0.6443 -0.0576
vn 0.8636 0.4740 0.1718
vn 0.4883 0.0353 0.8720
vn -0.0458 0.6518 0.7570
vn 0.3769 0.1775 -0.9091
vn -0.3087 0.2557 0.9161
vn -0.1255 0.9708 -0.2047
vn -0.1461 0.3099 0.9395
vn 0.0883 -0.1253 -0.9882
vn 0.3702 -0.2565 -0.8928
vn -0.6712 0.0878 0.7361
vn 0.6328 -0.1249 -0.7642
vn 0.4744 -0.2373 -0.8477
vn 0.2425 -0.4917 -0.8363
vn -0.7935 -0.4423 0.4180
vn -0.3639 -0.0266 0.9311
vn -0.3328 -0.9419 -0.0458
vn -0.1891 0.4534 0.8710
vn -0.3189 -0.3202 -0.8920
vn -0.5522 0.6904 -0.4674
vn -0.1817 -0.4512 -0.8737
vn -0.1862 -0.2295 -0.9553
vn 0.3472 -0.2558 -0.9022
vn 0.6397 0.3380 0.6903
vn 0.5724 0.3130 0.7579
vn -0.6443 0.3986 0.6527
vn -0.2911 -0.5639 -0.7729
vn -0.7116 -0.4168 -0.5655
vn 0.1845 0.8769 0.4438
vn 0.3535 0.3963 0.8473
vn 0.1884 0.4042 0.8950
vn -0.4375 -0.8872 -0.1467
vn 0.3738 0.6221 0.6879
vn 0.3875 0.0737 0.9189
vn 0.3081 -0.1907 0.9320
vn 0.7057 -0.2833 0.6493
vn 0.1312 -0.4511 0.8828
vn -0.2270 -0.5974 -0.7691
vn 0.0542 -0.8586 -0.5098
vn 0.1408 -0.8669 0.4783
vn -0.3045 0.2462 -0.9201
vn 0.0405 0.9969 0.0671
vn 0.4651 0.7169 0.5194
vn 0.2840 0.2552 0.9242
vn 0.2224 -0.2854 -0.9322
vn 0.5117 -0.8254 0.2384
vn 0.5666 -0.8102 0.1504
vn 0.0986 -0.3034 -0.9478
vn -0.3616 -0.2723 0.8917
vn -0.1257 0.3550 0.9264
vn -0.3874 -0.8415 0.3765
vn -0.8774 -0.4239 -0.2245
vn -0.7869 -0.1485 0.5989
vn -0.8586 -0.5069 -0.0765
vn -0.1082 0.6074 0.7870
vn 0.8204 0.5387 -0.1917
vn 0.9026 -0.3469 -0.2549
vn 0.4976 -0.3782 -0.7806
vn 0.1406 -0.3342 -0.9320
vn 0.0412 -0.3260 -0.9445
vn 0.8523 -0.4995 0.1555
vn -0.3664 0.2592 0.8936
vn -0.3341 -0.5812 0.7420
vn -0.3336 -0.1287 0.9339
vn -0.2160 -0.6582 0.7212
vn -0.7295 -0.2217 0.6470
vn 0.4389 0.3318 0.8350
vn -0.5512 -0.8029 0.2272
vn -0.1437 0.6834 0.7158
vn 0.8035 -0.1684 0.5709
vn 0.0409 -0.8004 -0.5981
vn -0.9231 -0.3366 -0.1859
vn 0.7903 0.6111 0.0445
vn 0.6154 -0.7257 0.3075
vn -0.7202 -0.6279 0.2950
vn -0.8321 0.4060 -0.3777
vn -0.1941 0.0579 -0.9793
vn -0.7785 -0.5179 -0.3545
vn 0.8700 -0.3856 -0.3072
vn 0.1895 0.9662 0.1745
vn 0.0829 0.9215 0.3795
vn -0.5299 0.5182 0.6714
vn -0.4539 0.3630 -0.8138
vn -0.9634 0.2298 0.1379
vn -0.8857 0.0042 0.4643
vn 0.2706 0.9244 -0.2690
vn 0.7776 0.5600 0.2859
vn 0.9051 -0.0088 -0.4251
vn -0.6589 -0.1343 0.7401
vn 0.0241 -0.8875 0.4602
s 1
f 65/1/1 99/2/2 98/3/3 66/4/4
f 91/5/5 90/6/6 96/7/7 75/8/8
f 90/9/6 97/10/9 100/11/10 96/12/7
f 59/13/11 58/14/12 111/15/13
f 58/14/12 112/16/14 111/15/13
f 58/17/12 43/18/15 115/19/16
f 58/17/12 115/19/16 112/20/14
f 74/21/17 103/22/18 91/5/5 75/8/8
f 115/19/16 43/18/15 42/23/19 124/24/20
f 124/25/20 42/26/19 59/13/11 111/15/13
f 103/27/18 74/28/17 100/11/10 97/10/9
f 46/29/21 47/30/22 48/31/23 49/32/24
f 49/32/24 50/33/25 51/34/26 46/29/21
f 50/35/25 49/36/24 48/37/23 52/38/27
f 48/39/23 47/40/22 53/41/28 52/42/27
f 60/43/29 61/44/30 62/45/31 63/46/32
f 61/44/30 46/29/21 51/34/26 62/45/31
f 53/41/28 47/40/22 60/47/29 63/46/32
f 63/46/32 62/48/31 51/49/26 53/41/28
f 60/43/29 47/30/22 46/29/21 61/44/30
f 52/42/27 53/41/28 51/49/26 50/50/25
f 16/51/33 17/52/34 18/53/35 19/54/36
f 20/55/37 19/56/36 18/57/35 21/58/38
f 22/59/39 23/60/40 17/52/34 16/51/33
f 20/55/37 21/58/38 23/61/40 22/62/39
f 18/63/41 14/64/42 8/65/43 24/66/44
f 25/67/45 15/68/46 14/69/42 18/70/41
f 15/68/46 25/67/45 26/71/47 7/72/48
f 8/65/43 7/73/48 26/74/47 24/66/44
f 81/75/49 82/76/50 23/61/51 21/58/52
f 83/77/53 84/78/54 26/71/55 25/67/56
f 18/63/57 24/66/58 21/58/52
f 17/52/59 25/67/56 18/53/60
f 25/67/56 109/79/61 83/77/53
f 81/75/49 21/58/52 110/80/62
f 26/74/55 84/81/54 122/82/63 24/66/58
f 21/58/52 24/66/58 122/82/63 110/80/62
f 17/52/59 23/60/51 82/83/50 106/84/64
f 25/67/56 17/52/59 106/84/64 109/79/61
f 68/85/65 69/86/66 70/87/67
f 74/88/17 76/89/68 73/90/69
f 73/91/69 40/92/70 87/93/71
f 88/94/72 89/95/73 82/76/50 81/75/49
f 70/87/67 92/96/74 93/97/75 94/98/76
f 68/99/65 101/100/77 102/101/78
f 82/83/50 89/102/73 105/103/79 106/84/64
f 107/104/80 108/105/81 76/89/68
f 96/106/7 107/104/80 76/89/68 75/107/8
f 68/99/65 84/78/54 83/77/53 101/100/77
f 113/108/82 73/91/69 87/93/71 114/109/83
f 116/110/84 114/109/83 102/101/78 101/100/77
f 73/111/69 117/112/85 40/92/70
f 93/97/75 92/96/74 108/105/81 88/94/72
f 68/113/65 102/101/78 119/114/86
f 105/103/79 89/102/73 107/115/80 113/108/82
f 93/97/75 88/94/72 81/75/49 110/80/62
f 109/79/61 116/110/84 101/100/77 83/77/53
f 114/109/83 87/93/71 118/116/87
f 120/117/88 64/118/89 121/119/90
f 118/116/87 64/118/89 120/117/88
f 84/81/54 68/120/65 94/98/76 122/82/63
f 121/121/90 64/122/89 41/123/91 123/124/92
f 68/85/65 115/125/16 69/86/66
f 94/98/76 93/97/75 110/80/62 122/82/63
f 94/98/76 68/120/65 70/87/67
f 41/126/91 117/112/85 108/105/81 92/96/74
f 68/113/65 119/114/86 111/127/13 112/128/14
f 88/94/72 108/105/81 89/95/73
f 124/129/20 69/86/66 115/125/16
f 113/108/82 114/109/83 116/110/84 105/103/79
f 70/87/67 123/124/92 41/123/91 92/96/74
f 74/130/17 73/131/69 113/132/82 100/133/10
f 114/109/83 118/116/87 120/117/88 102/101/78
f 108/105/81 73/111/69 76/89/68
f 41/126/91 40/134/70 117/112/85
f 121/121/90 69/86/66 125/135/93
f 125/136/93 119/114/86 121/119/90
f 121/121/90 123/124/92 70/87/67 69/86/66
f 105/103/79 116/110/84 109/79/61 106/84/64
f 96/137/7 100/133/10 113/132/82 107/115/80
f 125/136/93 124/138/20 111/127/13 119/114/86
f 120/117/88 121/119/90 119/114/86 102/101/78
f 124/129/20 125/135/93 69/86/66
f 108/105/81 117/112/85 73/111/69
f 74/88/17 75/107/8 76/89/68
f 107/104/80 89/95/73 108/105/81
f 68/85/65 112/139/14 115/125/16
f 1/140/94 2/141/95 3/142/96 4/143/97
f 5/144/98 6/145/99 7/146/100 8/147/101
f 9/148/102 6/149/99 1/140/94
f 3/150/96 10/151/103 11/152/104 4/153/97
f 12/154/105 13/155/106 9/148/102
f 9/148/102 13/155/106 14/156/107 15/157/108
f 9/158/102 1/140/94 4/153/97 11/152/104
f 6/145/99 5/144/98 2/159/95 1/160/94
f 13/161/106 12/162/105 2/159/95 5/144/98
f 10/151/103 12/154/105 9/158/102 11/152/104
f 14/163/107 13/161/106 5/144/98 8/147/101
f 3/150/96 2/141/95 12/154/105 10/151/103
f 6/149/99 9/148/102 15/157/108 7/164/100
f 27/165/109 28/166/110 29/167/111 30/168/112
f 20/169/113 30/168/112 29/167/111 19/170/114
f 31/171/115 32/172/116 33/173/117 34/174/118
f 32/172/116 35/175/119 33/176/117
f 32/177/116 31/178/115 36/179/120 27/180/109
f 22/181/121 35/182/119 30/168/112 20/169/113
f 32/177/116 27/165/109 30/168/112 35/182/119
f 29/183/111 33/176/117 16/184/122 19/185/114
f 36/179/120 31/171/115 34/174/118 37/186/123
f 28/187/110 27/180/109 36/179/120 37/186/123
f 33/176/117 35/175/119 22/188/121 16/184/122
f 28/187/110 33/176/117 29/183/111
f 33/173/117 28/187/110 37/186/123 34/174/118
f 38/189/124 39/190/125 40/191/70 41/192/91
f 42/23/19 43/18/15 44/193/126 45/194/127
f 54/195/128 55/196/129 56/197/130 57/198/131
f 57/198/131 58/14/12 59/13/11 54/195/128
f 64/199/89 65/200/1 66/201/4 67/202/132
f 71/203/133 56/204/130 55/205/129 72/206/134
f 77/207/135 78/208/136 79/209/137 80/210/138
f 58/17/12 57/211/131 44/193/126 43/18/15
f 85/212/139 78/208/136 77/207/135 86/213/140
f 80/210/138 79/209/137 90/6/6 91/5/5
f 72/214/134 55/196/129 54/195/128 45/215/127
f 79/216/137 78/217/136 85/218/139 95/219/141
f 97/10/9 90/9/6 79/216/137 95/219/141
f 98/220/3 99/221/2 40/222/70 39/223/125
f 80/210/138 91/5/5 103/22/18 104/224/142
f 57/211/131 56/204/130 71/203/133 44/193/126
f 99/221/2 87/93/71 40/225/70
f 64/226/89 118/227/87 65/228/1
f 104/229/142 103/27/18 97/10/9 95/219/141
f 86/230/140 104/229/142 95/219/141 85/218/139
f 65/200/1 118/116/87 87/93/71 99/221/2
f 64/231/89 67/232/132 38/233/124 41/234/91
f 71/203/133 72/206/134 45/194/127 44/193/126
f 104/224/142 86/213/140 77/207/135 80/210/138
f 45/215/127 54/195/128 59/13/11 42/26/19
f 66/4/4 126/235/143 67/202/132
f 66/4/4 98/3/3 126/235/143
f 39/190/125 38/233/124 67/202/132 126/235/143
f 98/3/3 39/190/125 126/235/143
