# Blender v2.79 (sub 0) OBJ File: 'Soldier.blend'
# www.blender.org
o soldier_rfoot_mesh0.004
v 5.403697 21.542421 -3.626441
v 3.728896 21.476551 -5.207094
v 3.310197 21.590302 0.462006
v 4.147595 21.590302 0.462006
v 3.589331 19.280937 -4.983646
v 4.426730 19.702682 -3.681723
v 3.728897 14.005896 -1.351560
v 2.472797 14.373066 -2.933583
v 3.310197 19.629799 -2.491138
v 2.612363 21.584812 0.330285
v 3.310196 20.723339 0.234236
v 1.774963 21.531441 -3.889883
v 2.472796 19.702682 -3.681723
v 0.797998 14.617844 -1.747065
v 1.914531 14.373064 0.625970
v -3.389002 15.578941 1.358561
v -2.272467 10.082156 -0.573273
v -0.984691 11.280746 -2.738756
v -1.853768 15.499977 -0.998555
v -3.389001 14.854500 -2.284781
v -2.551600 11.348923 -4.895058
v -5.063800 14.882587 -0.628981
v -4.505533 10.052384 -2.818927
v 1.774965 11.679872 -4.732802
v 0.937566 9.743365 -0.414031
v 3.310198 10.195585 -2.927801
v -4.645102 21.522793 -5.114107
v -2.970302 21.536797 -3.532143
v -3.668134 19.822243 -3.648810
v -4.645101 19.199818 -4.829865
v -5.622067 21.696514 0.685339
v -6.459467 21.536795 -3.532143
v -4.645102 19.833910 -2.330508
v -4.645102 20.716272 0.562175
v -5.622066 19.578640 -3.514812
v -4.505535 21.696514 0.685339
v -3.528569 21.450581 0.555676
v 0.030384 -2.175190 -1.643573
v -1.714199 -2.885098 -0.188840
v -1.694140 -0.043745 0.496881
v -0.318533 0.113926 -1.000841
v 4.208811 8.143284 4.520259
v 4.854713 9.218661 4.016939
v 4.436275 9.906464 4.618824
v 3.713258 8.400626 5.414178
v 4.702658 8.383589 4.450438
v 2.063385 8.504075 4.375622
v 2.468732 11.354884 13.556543
v 4.226640 11.274633 13.606377
v 4.024730 9.591678 14.221876
v 4.505857 5.912270 5.429311
v 2.266819 9.671928 14.172046
v 1.866584 6.032758 5.354493
v 2.628767 8.511629 4.233605
v 1.991710 9.706276 5.295176
v 2.216136 10.461639 4.838740
v 3.161359 10.035480 3.421705
v 3.817479 9.268373 3.149400
v 3.552423 8.156967 3.685812
v 2.588853 6.876788 2.093817
v 4.053252 6.723687 1.679060
v 3.915183 5.342692 1.757924
v 2.635215 5.548271 2.131085
v 1.635399 0.204589 -0.060055
v 1.243707 0.489441 3.010757
v 1.495834 -2.872298 2.134369
v 1.774966 -2.732831 -0.284623
v 3.031066 4.301713 -1.517836
v 4.845432 3.145646 -3.041011
v 2.891499 2.464063 -3.507813
v 2.992749 10.535500 5.562101
v 2.410418 9.771898 5.800045
v -3.010389 1.314086 2.790233
v -3.703073 7.031299 4.126339
v -5.776445 8.388973 3.761668
v -5.133621 3.222101 2.905229
v 0.482795 11.851100 7.212757
v 0.942393 12.281471 6.429190
v -0.294668 12.275373 5.115973
v -1.099159 11.624584 6.370099
v -2.412034 7.844552 -4.407938
v -3.807700 7.882062 -3.197016
v 1.077132 8.439380 -0.691150
v 2.612366 8.002637 -3.176012
v 1.352311 11.350480 6.471706
v 0.847777 11.155472 7.205255
v -0.831071 1.430077 1.326587
v -2.592090 4.576345 -3.051622
v -4.140246 4.280618 -0.881972
v -1.322486 11.578533 4.557128
v -1.897178 11.142931 5.419470
v -0.325340 1.882269 -2.057197
v -0.458100 4.251603 -3.690957
v 1.914532 4.839896 -2.988261
v 0.294603 10.607649 5.124322
v -5.515210 8.224046 1.719419
v -0.823084 10.381537 4.465446
v -1.155933 -3.058591 2.357519
v -0.792270 0.336908 3.138535
v -4.245865 6.693607 1.878372
v 1.774965 6.245625 0.503303
v 2.610278 3.857284 1.512199
v -1.420242 10.063618 5.302778
v -0.647448 10.069310 6.432213
v -2.860853 5.964274 0.241898
v -2.438976 8.261616 -0.627589
v -4.338703 3.929393 1.061579
v -4.571672 1.615943 -0.658106
v -0.458101 8.492075 -0.280507
v -0.597667 7.881245 -4.849093
v 3.827160 5.653196 0.605652
v 2.762020 7.428982 0.000643
v -2.615009 4.431783 2.107176
v -0.402064 4.464499 1.909088
v 5.006763 7.944125 -0.347671
v -0.217133 6.414246 0.910643
v -2.945591 0.193220 0.038694
v 0.947356 1.433702 0.888435
v 3.589333 3.106973 0.298488
v 2.472799 1.471817 0.464005
v 3.868466 0.785171 -1.124596
v 1.077133 7.987752 -4.516812
v 2.193666 0.599813 -2.249652
v 5.888105 5.708935 0.468067
v 5.124565 1.959658 -0.781037
v -0.109182 -3.291978 0.707835
vt 0.311700 0.162400
vt 0.321700 0.049000
vt 0.261700 0.049000
vt 0.265000 0.162400
vt 0.951700 0.451000
vt 0.935000 0.456200
vt 0.905000 0.353100
vt 0.935000 0.332500
vt 0.435000 0.456200
vt 0.455000 0.451000
vt 0.435000 0.337600
vt 0.405000 0.353100
vt 0.138300 0.482000
vt 0.165000 0.482000
vt 0.145000 0.342800
vt 0.188300 0.353100
vt 0.665000 0.482000
vt 0.645000 0.482000
vt 0.658300 0.342800
vt 0.688300 0.353100
vt 0.975000 0.317000
vt 0.971700 0.440700
vt 0.625000 0.476800
vt 0.611700 0.332500
vt 0.111700 0.332500
vt 0.125000 0.476800
vt 0.471700 0.440700
vt 0.475000 0.317000
vt 0.568300 0.528400
vt 0.608300 0.533500
vt 0.598300 0.853100
vt 0.555000 0.853100
vt 0.518300 0.847900
vt 0.528300 0.523200
vt 0.035000 0.889200
vt 0.058300 0.889200
vt 0.078300 0.894300
vt 0.055000 0.889200
vt 0.098300 0.853100
vt 0.108300 0.533500
vt 0.068300 0.528400
vt 0.058300 0.847900
vt 0.591700 0.409800
vt 0.571700 0.420100
vt 0.555000 0.404600
vt 0.071700 0.420100
vt 0.091700 0.409800
vt 0.055000 0.404600
vt 0.028300 0.523200
vt 0.018300 0.847900
vt 0.345000 0.703600
vt 0.335000 0.518000
vt 0.298300 0.533500
vt 0.308300 0.708800
vt 0.838300 0.703600
vt 0.808300 0.708800
vt 0.798300 0.533500
vt 0.828300 0.512900
vt 0.378300 0.703600
vt 0.378300 0.492300
vt 0.878300 0.492300
vt 0.878300 0.703600
vt 0.788300 0.533500
vt 0.778300 0.703600
vt 0.741700 0.703600
vt 0.748300 0.518000
vt 0.255000 0.518000
vt 0.241700 0.703600
vt 0.278300 0.703600
vt 0.288300 0.533500
vt 0.208300 0.497400
vt 0.211700 0.703600
vt 0.711700 0.703600
vt 0.708300 0.497400
vt 0.828300 0.425300
vt 0.861700 0.420100
vt 0.255000 0.430400
vt 0.221700 0.420100
vt 0.291700 0.425300
vt 0.788300 0.420100
vt 0.721700 0.420100
vt 0.751700 0.430400
vt 0.361700 0.420100
vt 0.331700 0.425300
vt 0.711700 0.260300
vt 0.685000 0.219100
vt 0.715000 0.224200
vt 0.961700 0.280900
vt 0.891700 0.219100
vt 0.915000 0.172700
vt 0.341700 0.162400
vt 0.331700 0.146900
vt 0.311700 0.167500
vt 0.835000 0.322200
vt 0.871700 0.291200
vt 0.788300 0.234500
vt 0.788300 0.317000
vt 0.735000 0.322200
vt 0.218300 0.291200
vt 0.241700 0.322200
vt 0.221700 0.224200
vt 0.371700 0.291200
vt 0.338300 0.322200
vt 0.875000 0.270600
vt 0.858300 0.219100
vt 0.901700 0.317000
vt 0.925000 0.301500
vt 0.361700 0.219100
vt 0.291700 0.239700
vt 0.285000 0.322200
vt 0.878300 0.141800
vt 0.838300 0.162400
vt 0.211700 0.260300
vt 0.191700 0.203600
vt 0.375000 0.270600
vt 0.268300 0.167500
vt 0.235000 0.162400
vt 0.248300 0.146900
vt 0.205000 0.141800
vt 0.718300 0.291200
vt 0.705000 0.141800
vt 0.748300 0.146900
vt 0.771700 0.152100
vt 0.731700 0.162400
vt 0.661700 0.311900
vt 0.801700 0.152100
vt 0.151700 0.306700
vt 0.191700 0.322200
vt 0.625000 0.296400
vt 0.461700 0.280900
vt 0.415000 0.172700
vt 0.398300 0.219100
vt 0.428300 0.301500
vt 0.831700 0.146900
vt 0.671700 0.167500
vt 0.171700 0.167500
vt 0.401700 0.317000
vt 0.125000 0.296400
vt 0.691700 0.322200
vt 0.201700 0.971600
vt 0.238300 0.971600
vt 0.745000 0.971600
vt 0.728300 0.971600
vt 0.738300 0.909800
vt 0.721700 0.914900
vt 0.701700 0.760300
vt 0.741700 0.750000
vt 0.245000 0.894300
vt 0.221700 0.914900
vt 0.245000 0.971600
vt 0.261700 0.971600
vt 0.245000 0.940700
vt 0.228300 0.971600
vt 0.281700 0.976800
vt 0.265000 0.909800
vt 0.281700 0.755200
vt 0.241700 0.755200
vt 0.241700 0.904600
vt 0.738300 0.971600
vt 0.701700 0.971600
vt 0.765000 0.909800
vt 0.781700 0.976800
vt 0.781700 0.755200
vt 0.201700 0.760300
vt 0.845000 0.976800
vt 0.808300 0.971600
vt 0.821700 0.909800
vt 0.841700 0.909800
vt 0.841700 0.755200
vt 0.805000 0.755200
vt 0.368300 0.971600
vt 0.385000 0.971600
vt 0.345000 0.909800
vt 0.345000 0.940700
vt 0.365000 0.909800
vt 0.345000 0.899500
vt 0.885000 0.971600
vt 0.868300 0.971600
vt 0.345000 0.976800
vt 0.345000 0.976800
vt 0.885000 0.760300
vt 0.865000 0.909800
vt 0.321700 0.909800
vt 0.345000 0.755200
vt 0.305000 0.755200
vt 0.321700 0.966500
vt 0.308300 0.971600
vt 0.385000 0.760300
vt 0.808300 0.038700
vt 0.831700 0.038700
vt 0.831700 0.116000
vt 0.808300 0.121100
vt 0.645000 0.512900
vt 0.615000 0.512900
vt 0.135000 0.512900
vt 0.135000 0.574700
vt 0.155000 0.574700
vt 0.171700 0.518000
vt 0.248300 0.116000
vt 0.265000 0.162400
vt 0.261700 0.049000
vt 0.251700 0.038700
vt 0.638300 0.574700
vt 0.655000 0.574700
vt 0.635000 0.574700
vt 0.628300 0.569600
vt 0.968300 0.549000
vt 0.955000 0.554100
vt 0.935000 0.502600
vt 0.958300 0.492300
vt 0.671700 0.518000
vt 0.971700 0.549000
vt 0.981700 0.549000
vt 0.128300 0.569600
vt 0.115000 0.512900
vt 0.435000 0.502600
vt 0.455000 0.554100
vt 0.471700 0.549000
vt 0.461700 0.492300
vt 0.321700 0.049000
vt 0.311700 0.162400
vt 0.331700 0.116000
vt 0.331700 0.038700
vt 0.988300 0.482000
vt 0.328300 0.126300
vt 0.755000 0.126300
vt 0.768300 0.167500
vt 0.765000 0.162400
vt 0.488300 0.482000
vt 0.481700 0.549000
vt 0.748300 0.116000
vt 0.751700 0.038700
vt 0.765000 0.038700
vt 0.768300 0.116000
vt 0.000000 0.000000
vn 0.8522 0.3977 0.3400
vn -0.2835 0.5677 0.7728
vn -0.5678 -0.6225 0.5387
vn 0.4744 -0.6229 0.6220
vn -0.7951 0.4854 0.3637
vn -0.8206 0.5659 0.0797
vn -0.8000 0.5775 0.1629
vn -0.8528 0.3638 0.3746
vn 0.4711 -0.3245 -0.8202
vn 0.7640 0.0210 -0.6449
vn -0.4641 -0.8566 -0.2256
vn 0.4260 0.8743 -0.2326
vn -0.7252 -0.4870 0.4868
vn -0.6780 -0.7351 -0.0056
vn 0.9016 0.4165 0.1166
vn 0.5210 0.5037 -0.6891
vn -0.1068 -0.9798 0.1689
vn 0.5641 0.0022 0.8257
vn 0.9804 0.0483 0.1910
vn 0.4798 -0.7263 -0.4923
vn 0.6182 0.4257 -0.6607
vn -0.4328 0.7190 0.5438
vn 0.2727 0.8544 0.4422
vn 0.3602 0.7949 0.4882
vn 0.6482 -0.7538 0.1073
vn 0.9819 0.0473 -0.1833
vn -0.6707 -0.3466 0.6557
vn -0.5250 -0.8284 -0.1954
vn 0.1654 0.3108 -0.9360
vn 0.3307 0.0568 -0.9420
vn -0.5437 -0.6941 -0.4717
vn -0.7151 -0.5251 -0.4614
vn 0.2152 -0.3613 0.9073
vn 0.0484 -0.2925 0.9550
vn 0.7546 -0.5356 -0.3792
vn 0.3924 0.8950 -0.2122
vn 0.2550 0.5178 -0.8166
vn 0.0031 0.7098 -0.7044
vn -0.7261 0.6861 -0.0458
vn -0.5736 -0.7910 -0.2128
vn -0.8108 -0.5213 -0.2661
vn -0.1494 0.9872 -0.0566
vn 0.3044 -0.1846 -0.9345
vn 0.1791 0.4888 -0.8538
vn -0.1328 -0.0597 0.9893
vn 0.0004 -0.2433 0.9700
vn 0.6161 -0.7393 -0.2717
vn 0.6910 0.7221 0.0336
vn -0.4023 -0.3420 -0.8492
vn -0.7890 0.6137 -0.0309
vn -0.7666 0.6315 0.1161
vn -0.5052 0.0249 -0.8626
vn 0.5587 0.2261 0.7979
vn 0.7694 0.6356 -0.0633
vn 0.8636 0.4740 0.1718
vn 0.4887 0.0359 0.8717
vn -0.0458 0.6518 0.7570
vn 0.3769 0.1775 -0.9091
vn -0.3092 0.2566 0.9157
vn -0.1255 0.9708 -0.2047
vn -0.1592 0.3267 0.9316
vn 0.1049 -0.1344 -0.9854
vn 0.3933 -0.2799 -0.8758
vn -0.6675 0.1035 0.7374
vn 0.6782 0.1521 -0.7190
vn 0.4629 0.0695 -0.8837
vn 0.2906 -0.3005 -0.9084
vn -0.7862 -0.2634 0.5590
vn -0.1431 -0.0225 0.9895
vn -0.4919 -0.7711 -0.4042
vn 0.0676 0.2276 0.9714
vn -0.3388 -0.3571 -0.8705
vn -0.5941 0.6756 -0.4366
vn -0.1993 -0.3971 -0.8959
vn -0.1795 -0.2582 -0.9493
vn 0.4359 -0.2387 -0.8678
vn 0.5762 0.3900 0.7182
vn 0.4774 0.1583 0.8643
vn -0.6068 0.4051 0.6838
vn -0.5276 -0.5141 -0.6763
vn -0.8116 -0.3902 -0.4349
vn 0.4232 0.7915 0.4410
vn 0.3781 0.3871 0.8410
vn 0.1598 0.4414 0.8830
vn -0.4765 -0.8605 -0.1801
vn 0.3946 0.3470 0.8508
vn 0.4607 -0.2952 0.8370
vn 0.3118 -0.4243 0.8502
vn 0.7443 -0.4292 0.5117
vn 0.1447 -0.7328 0.6649
vn -0.2757 -0.2687 -0.9229
vn 0.0583 -0.6490 -0.7586
vn 0.1377 -0.9805 0.1401
vn -0.3045 0.2462 -0.9201
vn 0.0405 0.9969 0.0671
vn 0.4651 0.7169 0.5194
vn 0.2840 0.2552 0.9242
vn 0.2224 -0.2854 -0.9322
vn 0.5117 -0.8254 0.2384
vn 0.5666 -0.8102 0.1504
vn 0.0986 -0.3034 -0.9478
vn -0.3616 -0.2723 0.8917
vn -0.1257 0.3550 0.9264
vn -0.3874 -0.8415 0.3765
vn -0.8774 -0.4239 -0.2245
vn -0.7869 -0.1485 0.5989
vn -0.8586 -0.5069 -0.0765
vn -0.1082 0.6074 0.7870
vn 0.8204 0.5387 -0.1917
vn 0.9026 -0.3469 -0.2549
vn 0.4976 -0.3782 -0.7806
vn 0.1406 -0.3342 -0.9320
vn 0.0412 -0.3260 -0.9445
vn 0.8523 -0.4995 0.1555
vn -0.3664 0.2592 0.8936
vn -0.3341 -0.5812 0.7420
vn -0.3336 -0.1287 0.9339
vn -0.2160 -0.6582 0.7212
vn -0.7295 -0.2217 0.6470
vn 0.4389 0.3318 0.8350
vn -0.5512 -0.8029 0.2272
vn -0.1437 0.6834 0.7158
vn 0.8035 -0.1684 0.5709
vn 0.0302 -0.3253 -0.9451
vn -0.9321 -0.1728 -0.3183
vn 0.7903 0.5108 0.3382
vn 0.6154 -0.7833 -0.0876
vn -0.7202 -0.6919 -0.0505
vn -0.8321 0.5390 -0.1303
vn -0.1941 0.5303 -0.8253
vn -0.7785 -0.2778 -0.5629
vn 0.8666 -0.1496 -0.4760
vn 0.1895 0.7567 0.6256
vn 0.0829 0.6173 0.7823
vn -0.0737 0.4804 0.8740
vn -0.0374 0.8111 -0.5836
vn -0.5557 0.7444 0.3703
vn -0.6713 0.4334 0.6013
vn 0.8421 0.5373 -0.0469
vn 0.9325 -0.2250 0.2825
vn 0.6801 -0.4621 -0.5691
vn -0.6158 0.1000 0.7815
vn 0.0241 -0.9933 -0.1128
s 1
f 65/1/1 99/2/2 98/3/3 66/4/4
f 91/5/5 90/6/6 96/7/7 75/8/8
f 90/9/6 97/10/9 100/11/10 96/12/7
f 59/13/11 58/14/12 111/15/13
f 58/14/12 112/16/14 111/15/13
f 58/17/12 43/18/15 115/19/16
f 58/17/12 115/19/16 112/20/14
f 74/21/17 103/22/18 91/5/5 75/8/8
f 115/19/16 43/18/15 42/23/19 124/24/20
f 124/25/20 42/26/19 59/13/11 111/15/13
f 103/27/18 74/28/17 100/11/10 97/10/9
f 46/29/21 47/30/22 48/31/23 49/32/24
f 49/32/24 50/33/25 51/34/26 46/29/21
f 50/35/25 49/36/24 48/37/23 52/38/27
f 48/39/23 47/40/22 53/41/28 52/42/27
f 60/43/29 61/44/30 62/45/31 63/46/32
f 61/44/30 46/29/21 51/34/26 62/45/31
f 53/41/28 47/40/22 60/47/29 63/46/32
f 63/46/32 62/48/31 51/49/26 53/41/28
f 60/43/29 47/30/22 46/29/21 61/44/30
f 52/42/27 53/41/28 51/49/26 50/50/25
f 16/51/33 17/52/34 18/53/35 19/54/36
f 20/55/37 19/56/36 18/57/35 21/58/38
f 22/59/39 23/60/40 17/52/34 16/51/33
f 20/55/37 21/58/38 23/61/40 22/62/39
f 18/63/41 14/64/42 8/65/43 24/66/44
f 25/67/45 15/68/46 14/69/42 18/70/41
f 15/68/46 25/67/45 26/71/47 7/72/48
f 8/65/43 7/73/48 26/74/47 24/66/44
f 81/75/49 82/76/50 23/61/51 21/58/52
f 83/77/53 84/78/54 26/71/55 25/67/56
f 18/63/57 24/66/58 21/58/52
f 17/52/59 25/67/56 18/53/60
f 25/67/56 109/79/61 83/77/53
f 81/75/49 21/58/52 110/80/62
f 26/74/55 84/81/54 122/82/63 24/66/58
f 21/58/52 24/66/58 122/82/63 110/80/62
f 17/52/59 23/60/51 82/83/50 106/84/64
f 25/67/56 17/52/59 106/84/64 109/79/61
f 68/85/65 69/86/66 70/87/67
f 74/88/17 76/89/68 73/90/69
f 73/91/69 40/92/70 87/93/71
f 88/94/72 89/95/73 82/76/50 81/75/49
f 70/87/67 92/96/74 93/97/75 94/98/76
f 68/99/65 101/100/77 102/101/78
f 82/83/50 89/102/73 105/103/79 106/84/64
f 107/104/80 108/105/81 76/89/68
f 96/106/7 107/104/80 76/89/68 75/107/8
f 68/99/65 84/78/54 83/77/53 101/100/77
f 113/108/82 73/91/69 87/93/71 114/109/83
f 116/110/84 114/109/83 102/101/78 101/100/77
f 73/111/69 117/112/85 40/92/70
f 93/97/75 92/96/74 108/105/81 88/94/72
f 68/113/65 102/101/78 119/114/86
f 105/103/79 89/102/73 107/115/80 113/108/82
f 93/97/75 88/94/72 81/75/49 110/80/62
f 109/79/61 116/110/84 101/100/77 83/77/53
f 114/109/83 87/93/71 118/116/87
f 120/117/88 64/118/89 121/119/90
f 118/116/87 64/118/89 120/117/88
f 84/81/54 68/120/65 94/98/76 122/82/63
f 121/121/90 64/122/89 41/123/91 123/124/92
f 68/85/65 115/125/16 69/86/66
f 94/98/76 93/97/75 110/80/62 122/82/63
f 94/98/76 68/120/65 70/87/67
f 41/126/91 117/112/85 108/105/81 92/96/74
f 68/113/65 119/114/86 111/127/13 112/128/14
f 88/94/72 108/105/81 89/95/73
f 124/129/20 69/86/66 115/125/16
f 113/108/82 114/109/83 116/110/84 105/103/79
f 70/87/67 123/124/92 41/123/91 92/96/74
f 74/130/17 73/131/69 113/132/82 100/133/10
f 114/109/83 118/116/87 120/117/88 102/101/78
f 108/105/81 73/111/69 76/89/68
f 41/126/91 40/134/70 117/112/85
f 121/121/90 69/86/66 125/135/93
f 125/136/93 119/114/86 121/119/90
f 121/121/90 123/124/92 70/87/67 69/86/66
f 105/103/79 116/110/84 109/79/61 106/84/64
f 96/137/7 100/133/10 113/132/82 107/115/80
f 125/136/93 124/138/20 111/127/13 119/114/86
f 120/117/88 121/119/90 119/114/86 102/101/78
f 124/129/20 125/135/93 69/86/66
f 108/105/81 117/112/85 73/111/69
f 74/88/17 75/107/8 76/89/68
f 107/104/80 89/95/73 108/105/81
f 68/85/65 112/139/14 115/125/16
f 1/140/94 2/141/95 3/142/96 4/143/97
f 5/144/98 6/145/99 7/146/100 8/147/101
f 9/148/102 6/149/99 1/140/94
f 3/150/96 10/151/103 11/152/104 4/153/97
f 12/154/105 13/155/106 9/148/102
f 9/148/102 13/155/106 14/156/107 15/157/108
f 9/158/102 1/140/94 4/153/97 11/152/104
f 6/145/99 5/144/98 2/159/95 1/160/94
f 13/161/106 12/162/105 2/159/95 5/144/98
f 10/151/103 12/154/105 9/158/102 11/152/104
f 14/163/107 13/161/106 5/144/98 8/147/101
f 3/150/96 2/141/95 12/154/105 10/151/103
f 6/149/99 9/148/102 15/157/108 7/164/100
f 27/165/109 28/166/110 29/167/111 30/168/112
f 20/169/113 30/168/112 29/167/111 19/170/114
f 31/171/115 32/172/116 33/173/117 34/174/118
f 32/172/116 35/175/119 33/176/117
f 32/177/116 31/178/115 36/179/120 27/180/109
f 22/181/121 35/182/119 30/168/112 20/169/113
f 32/177/116 27/165/109 30/168/112 35/182/119
f 29/183/111 33/176/117 16/184/122 19/185/114
f 36/179/120 31/171/115 34/174/118 37/186/123
f 28/187/110 27/180/109 36/179/120 37/186/123
f 33/176/117 35/175/119 22/188/121 16/184/122
f 28/187/110 33/176/117 29/183/111
f 33/173/117 28/187/110 37/186/123 34/174/118
f 38/189/124 39/190/125 40/191/70 41/192/91
f 42/23/19 43/18/15 44/193/126 45/194/127
f 54/195/128 55/196/129 56/197/130 57/198/131
f 57/198/131 58/14/12 59/13/11 54/195/128
f 64/199/89 65/200/1 66/201/4 67/202/132
f 71/203/133 56/204/130 55/205/129 72/206/134
f 77/207/135 78/208/136 79/209/137 80/210/138
f 58/17/12 57/211/131 44/193/126 43/18/15
f 85/212/139 78/208/136 77/207/135 86/213/140
f 80/210/138 79/209/137 90/6/6 91/5/5
f 72/214/134 55/196/129 54/195/128 45/215/127
f 79/216/137 78/217/136 85/218/139 95/219/141
f 97/10/9 90/9/6 79/216/137 95/219/141
f 98/220/3 99/221/2 40/222/70 39/223/125
f 80/210/138 91/5/5 103/22/18 104/224/142
f 57/211/131 56/204/130 71/203/133 44/193/126
f 99/221/2 87/93/71 40/225/70
f 64/226/89 118/227/87 65/228/1
f 104/229/142 103/27/18 97/10/9 95/219/141
f 86/230/140 104/229/142 95/219/141 85/218/139
f 65/200/1 118/116/87 87/93/71 99/221/2
f 64/231/89 67/232/132 38/233/124 41/234/91
f 71/203/133 72/206/134 45/194/127 44/193/126
f 104/224/142 86/213/140 77/207/135 80/210/138
f 45/215/127 54/195/128 59/13/11 42/26/19
f 66/4/4 126/235/143 67/202/132
f 66/4/4 98/3/3 126/235/143
f 39/190/125 38/233/124 67/202/132 126/235/143
f 98/3/3 39/190/125 126/235/143
