# Blender v2.79 (sub 0) OBJ File: 'Soldier.blend'
# www.blender.org
o soldier_rfoot_mesh0.004
v 5.403697 21.542421 -3.626441
v 3.728896 21.476551 -5.207094
v 3.310197 21.590302 0.462006
v 4.147595 21.590302 0.462006
v 3.589331 19.280937 -4.983646
v 4.426730 19.702682 -3.681723
v 3.728897 14.005896 -1.351560
v 2.472797 14.373066 -2.933583
v 3.310197 19.629799 -2.491138
v 2.612363 21.584812 0.330285
v 3.310196 20.723339 0.234236
v 1.774963 21.531441 -3.889883
v 2.472796 19.702682 -3.681723
v 0.797998 14.617844 -1.747065
v 1.914531 14.373064 0.625970
v -3.389002 15.578941 1.358561
v -2.272467 10.082156 -0.573273
v -0.984691 11.280746 -2.738756
v -1.853768 15.499977 -0.998555
v -3.389001 14.854500 -2.284781
v -2.551600 11.348923 -4.895058
v -5.063800 14.882587 -0.628981
v -4.505533 10.052384 -2.818927
v 1.774965 11.679872 -4.732802
v 0.937566 9.743365 -0.414031
v 3.310198 10.195585 -2.927801
v -4.645102 21.522793 -5.114107
v -2.970302 21.536797 -3.532143
v -3.668134 19.822243 -3.648810
v -4.645101 19.199818 -4.829865
v -5.622067 21.696514 0.685339
v -6.459467 21.536795 -3.532143
v -4.645102 19.833910 -2.330508
v -4.645102 20.716272 0.562175
v -5.622066 19.578640 -3.514812
v -4.505535 21.696514 0.685339
v -3.528569 21.450581 0.555676
v 0.030384 -2.308917 -1.365957
v -1.714199 -2.887381 0.145862
v -1.714199 -0.009242 0.513439
v -0.318533 0.033028 -0.933153
v 4.208811 6.607555 4.065122
v 4.854713 7.790663 3.965008
v 4.436275 8.227705 4.767710
v 3.713258 6.539676 4.992865
v 4.702658 6.857175 4.082766
v 2.063385 6.996106 4.054264
v 2.468732 6.493924 13.654484
v 4.226641 6.401387 13.673470
v 4.024730 4.609416 13.668592
v 4.505857 4.199806 4.146017
v 2.266820 4.701952 13.649609
v 1.866584 4.338740 4.117512
v 2.628767 7.052336 3.923635
v 1.991710 7.805846 5.333008
v 2.216136 8.672486 5.166148
v 3.161359 8.762991 3.689190
v 3.817479 8.137498 3.168264
v 3.552423 6.909138 3.286959
v 2.588853 6.258922 1.350331
v 4.053252 6.258798 0.908218
v 3.915183 4.935826 0.504344
v 2.635215 4.999580 0.925589
v 1.635399 0.201836 0.014928
v 1.216699 0.706898 3.046975
v 1.495834 -2.669156 2.458834
v 1.774966 -2.744181 0.036987
v 3.031066 4.166614 -1.836969
v 4.845432 2.780168 -3.149067
v 2.891499 2.101979 -3.534855
v 2.992749 8.491478 5.870381
v 2.410418 7.692715 5.829396
v -3.452594 1.100712 2.085802
v -2.825112 4.557803 5.610478
v -4.288804 6.472094 6.277459
v -5.256358 2.886570 2.478185
v 3.620171 7.571653 8.057711
v 3.841546 8.099201 7.231205
v 2.284004 8.875633 6.755694
v 1.888911 8.084313 8.119980
v -2.412034 7.844552 -4.407938
v -3.807700 7.882062 -3.197016
v 1.077132 8.439380 -0.691150
v 2.612366 8.002637 -3.176012
v 3.817676 7.134613 6.906268
v 3.633782 6.848213 7.751748
v -1.016367 1.408012 1.161801
v -2.551600 4.634022 -3.093751
v -4.086833 4.633723 -0.952669
v 0.932739 8.717547 6.697445
v 0.648334 8.190001 7.648477
v -0.318534 1.845649 -2.071336
v -0.458100 4.242234 -3.697288
v 1.914532 4.754596 -3.072746
v 2.094836 7.210231 6.190662
v -4.130665 7.249054 4.323956
v 0.818535 7.534439 6.170360
v -1.155933 -2.834982 2.697587
v -0.876800 0.563698 3.155847
v -3.234409 5.710993 3.604406
v 1.774965 6.261318 0.401441
v 2.612366 3.985307 1.343148
v 0.552871 7.127467 7.130877
v 1.655454 6.539485 7.688959
v -2.691167 6.118118 0.510315
v -2.412034 8.296180 -0.582276
v -4.068610 4.181497 1.334872
v -4.505533 1.732517 -1.421940
v -0.458101 8.492075 -0.280507
v -0.597667 7.881245 -4.849093
v 3.827160 5.681076 0.149269
v 2.762020 7.497419 -0.464092
v -2.412033 3.563150 2.340171
v -0.318534 4.233895 2.055558
v 5.006763 8.039850 -0.833361
v -0.178968 6.411959 0.962968
v -2.970300 0.179948 -0.354202
v 0.937567 1.453264 0.902043
v 3.589333 3.133850 0.175441
v 2.472799 1.521142 0.512405
v 3.868466 0.662243 -0.975432
v 1.077133 7.987752 -4.516812
v 2.193666 0.360960 -2.098486
v 5.888105 5.718588 -0.004971
v 5.124565 1.867976 -0.765382
v -0.109182 -3.213360 1.075009
vt 0.311700 0.162400
vt 0.321700 0.049000
vt 0.261700 0.049000
vt 0.265000 0.162400
vt 0.951700 0.451000
vt 0.935000 0.456200
vt 0.905000 0.353100
vt 0.935000 0.332500
vt 0.435000 0.456200
vt 0.455000 0.451000
vt 0.435000 0.337600
vt 0.405000 0.353100
vt 0.138300 0.482000
vt 0.165000 0.482000
vt 0.145000 0.342800
vt 0.188300 0.353100
vt 0.665000 0.482000
vt 0.645000 0.482000
vt 0.658300 0.342800
vt 0.688300 0.353100
vt 0.975000 0.317000
vt 0.971700 0.440700
vt 0.625000 0.476800
vt 0.611700 0.332500
vt 0.111700 0.332500
vt 0.125000 0.476800
vt 0.471700 0.440700
vt 0.475000 0.317000
vt 0.568300 0.528400
vt 0.608300 0.533500
vt 0.598300 0.853100
vt 0.555000 0.853100
vt 0.518300 0.847900
vt 0.528300 0.523200
vt 0.035000 0.889200
vt 0.058300 0.889200
vt 0.078300 0.894300
vt 0.055000 0.889200
vt 0.098300 0.853100
vt 0.108300 0.533500
vt 0.068300 0.528400
vt 0.058300 0.847900
vt 0.591700 0.409800
vt 0.571700 0.420100
vt 0.555000 0.404600
vt 0.071700 0.420100
vt 0.091700 0.409800
vt 0.055000 0.404600
vt 0.028300 0.523200
vt 0.018300 0.847900
vt 0.345000 0.703600
vt 0.335000 0.518000
vt 0.298300 0.533500
vt 0.308300 0.708800
vt 0.838300 0.703600
vt 0.808300 0.708800
vt 0.798300 0.533500
vt 0.828300 0.512900
vt 0.378300 0.703600
vt 0.378300 0.492300
vt 0.878300 0.492300
vt 0.878300 0.703600
vt 0.788300 0.533500
vt 0.778300 0.703600
vt 0.741700 0.703600
vt 0.748300 0.518000
vt 0.255000 0.518000
vt 0.241700 0.703600
vt 0.278300 0.703600
vt 0.288300 0.533500
vt 0.208300 0.497400
vt 0.211700 0.703600
vt 0.711700 0.703600
vt 0.708300 0.497400
vt 0.828300 0.425300
vt 0.861700 0.420100
vt 0.255000 0.430400
vt 0.221700 0.420100
vt 0.291700 0.425300
vt 0.788300 0.420100
vt 0.721700 0.420100
vt 0.751700 0.430400
vt 0.361700 0.420100
vt 0.331700 0.425300
vt 0.711700 0.260300
vt 0.685000 0.219100
vt 0.715000 0.224200
vt 0.961700 0.280900
vt 0.891700 0.219100
vt 0.915000 0.172700
vt 0.341700 0.162400
vt 0.331700 0.146900
vt 0.311700 0.167500
vt 0.835000 0.322200
vt 0.871700 0.291200
vt 0.788300 0.234500
vt 0.788300 0.317000
vt 0.735000 0.322200
vt 0.218300 0.291200
vt 0.241700 0.322200
vt 0.221700 0.224200
vt 0.371700 0.291200
vt 0.338300 0.322200
vt 0.875000 0.270600
vt 0.858300 0.219100
vt 0.901700 0.317000
vt 0.925000 0.301500
vt 0.361700 0.219100
vt 0.291700 0.239700
vt 0.285000 0.322200
vt 0.878300 0.141800
vt 0.838300 0.162400
vt 0.211700 0.260300
vt 0.191700 0.203600
vt 0.375000 0.270600
vt 0.268300 0.167500
vt 0.235000 0.162400
vt 0.248300 0.146900
vt 0.205000 0.141800
vt 0.718300 0.291200
vt 0.705000 0.141800
vt 0.748300 0.146900
vt 0.771700 0.152100
vt 0.731700 0.162400
vt 0.661700 0.311900
vt 0.801700 0.152100
vt 0.151700 0.306700
vt 0.191700 0.322200
vt 0.625000 0.296400
vt 0.461700 0.280900
vt 0.415000 0.172700
vt 0.398300 0.219100
vt 0.428300 0.301500
vt 0.831700 0.146900
vt 0.671700 0.167500
vt 0.171700 0.167500
vt 0.401700 0.317000
vt 0.125000 0.296400
vt 0.691700 0.322200
vt 0.201700 0.971600
vt 0.238300 0.971600
vt 0.745000 0.971600
vt 0.728300 0.971600
vt 0.738300 0.909800
vt 0.721700 0.914900
vt 0.701700 0.760300
vt 0.741700 0.750000
vt 0.245000 0.894300
vt 0.221700 0.914900
vt 0.245000 0.971600
vt 0.261700 0.971600
vt 0.245000 0.940700
vt 0.228300 0.971600
vt 0.281700 0.976800
vt 0.265000 0.909800
vt 0.281700 0.755200
vt 0.241700 0.755200
vt 0.241700 0.904600
vt 0.738300 0.971600
vt 0.701700 0.971600
vt 0.765000 0.909800
vt 0.781700 0.976800
vt 0.781700 0.755200
vt 0.201700 0.760300
vt 0.845000 0.976800
vt 0.808300 0.971600
vt 0.821700 0.909800
vt 0.841700 0.909800
vt 0.841700 0.755200
vt 0.805000 0.755200
vt 0.368300 0.971600
vt 0.385000 0.971600
vt 0.345000 0.909800
vt 0.345000 0.940700
vt 0.365000 0.909800
vt 0.345000 0.899500
vt 0.885000 0.971600
vt 0.868300 0.971600
vt 0.345000 0.976800
vt 0.345000 0.976800
vt 0.885000 0.760300
vt 0.865000 0.909800
vt 0.321700 0.909800
vt 0.345000 0.755200
vt 0.305000 0.755200
vt 0.321700 0.966500
vt 0.308300 0.971600
vt 0.385000 0.760300
vt 0.808300 0.038700
vt 0.831700 0.038700
vt 0.831700 0.116000
vt 0.808300 0.121100
vt 0.645000 0.512900
vt 0.615000 0.512900
vt 0.135000 0.512900
vt 0.135000 0.574700
vt 0.155000 0.574700
vt 0.171700 0.518000
vt 0.248300 0.116000
vt 0.265000 0.162400
vt 0.261700 0.049000
vt 0.251700 0.038700
vt 0.638300 0.574700
vt 0.655000 0.574700
vt 0.635000 0.574700
vt 0.628300 0.569600
vt 0.968300 0.549000
vt 0.955000 0.554100
vt 0.935000 0.502600
vt 0.958300 0.492300
vt 0.671700 0.518000
vt 0.971700 0.549000
vt 0.981700 0.549000
vt 0.128300 0.569600
vt 0.115000 0.512900
vt 0.435000 0.502600
vt 0.455000 0.554100
vt 0.471700 0.549000
vt 0.461700 0.492300
vt 0.321700 0.049000
vt 0.311700 0.162400
vt 0.331700 0.116000
vt 0.331700 0.038700
vt 0.988300 0.482000
vt 0.328300 0.126300
vt 0.755000 0.126300
vt 0.768300 0.167500
vt 0.765000 0.162400
vt 0.488300 0.482000
vt 0.481700 0.549000
vt 0.748300 0.116000
vt 0.751700 0.038700
vt 0.765000 0.038700
vt 0.768300 0.116000
vt 0.000000 0.000000
vn 0.8417 0.4389 0.3144
vn -0.2918 0.6322 0.7178
vn -0.5661 -0.5780 0.5877
vn 0.4736 -0.5643 0.6762
vn -0.4383 0.5095 0.7405
vn -0.4209 0.6446 0.6382
vn -0.6480 0.5792 0.4946
vn -0.7036 0.3065 0.6411
vn 0.1348 -0.0903 -0.9868
vn 0.7729 0.1145 -0.6241
vn -0.4803 -0.7136 -0.5100
vn 0.4290 0.8984 0.0939
vn -0.7918 -0.4422 0.4212
vn -0.7154 -0.6984 -0.0207
vn 0.8963 0.3665 0.2495
vn 0.4755 0.5769 -0.6642
vn -0.3556 -0.8827 -0.3071
vn 0.8079 -0.4265 0.4066
vn 0.9777 -0.0249 0.2085
vn 0.4273 -0.7548 -0.4978
vn 0.6182 0.6281 -0.4726
vn -0.4328 0.4864 0.7590
vn 0.2727 0.6486 0.7106
vn 0.3602 0.5769 0.7331
vn 0.6482 -0.7444 -0.1602
vn 0.9819 0.1078 -0.1556
vn -0.6707 -0.5521 0.4953
vn -0.5250 -0.7096 -0.4700
vn 0.1654 0.6155 -0.7706
vn 0.3307 0.3793 -0.8642
vn -0.5437 -0.4880 -0.6828
vn -0.7151 -0.3330 -0.6146
vn 0.2152 -0.3613 0.9073
vn 0.0484 -0.2925 0.9550
vn 0.7546 -0.5356 -0.3792
vn 0.3924 0.8950 -0.2122
vn 0.2550 0.5178 -0.8166
vn 0.0031 0.7098 -0.7044
vn -0.7261 0.6861 -0.0458
vn -0.5736 -0.7910 -0.2128
vn -0.8108 -0.5213 -0.2661
vn -0.1494 0.9872 -0.0566
vn 0.3044 -0.1846 -0.9345
vn 0.1791 0.4888 -0.8538
vn -0.1328 -0.0597 0.9893
vn 0.0004 -0.2433 0.9700
vn 0.6161 -0.7393 -0.2717
vn 0.6910 0.7221 0.0336
vn -0.4058 -0.3435 -0.8470
vn -0.7899 0.6125 -0.0306
vn -0.7666 0.6315 0.1161
vn -0.5052 0.0249 -0.8626
vn 0.5679 0.2167 0.7941
vn 0.7661 0.6396 -0.0631
vn 0.8636 0.4740 0.1718
vn 0.4905 0.0383 0.8706
vn -0.0458 0.6518 0.7570
vn 0.3769 0.1775 -0.9091
vn -0.3104 0.2593 0.9146
vn -0.1255 0.9708 -0.2047
vn -0.1322 0.3437 0.9297
vn 0.0991 -0.1312 -0.9864
vn 0.3825 -0.2711 -0.8833
vn -0.6622 0.1264 0.7386
vn 0.6885 0.0102 -0.7251
vn 0.4745 -0.0360 -0.8795
vn 0.2699 -0.3667 -0.8904
vn -0.9314 -0.2011 0.3036
vn -0.1095 -0.3162 0.9423
vn -0.4944 -0.8086 -0.3188
vn -0.0492 0.1468 0.9879
vn -0.3298 -0.3340 -0.8830
vn -0.6080 0.6861 -0.3994
vn -0.1619 -0.4017 -0.9013
vn -0.1710 -0.2396 -0.9557
vn 0.3932 -0.2426 -0.8869
vn 0.6078 0.3769 0.6989
vn 0.5285 0.2117 0.8221
vn -0.5154 0.3871 0.7645
vn -0.6203 -0.1788 -0.7637
vn -0.7746 -0.3258 -0.5421
vn 0.6058 0.4902 0.6267
vn 0.3046 0.3804 0.8732
vn 0.1971 0.4254 0.8833
vn -0.4395 -0.8623 -0.2515
vn 0.4136 0.4425 0.7957
vn 0.4425 -0.2682 0.8557
vn 0.3216 -0.3713 0.8710
vn 0.7242 -0.4092 0.5550
vn 0.1351 -0.6558 0.7428
vn -0.2337 -0.3436 -0.9096
vn 0.0548 -0.7166 -0.6953
vn 0.1380 -0.9575 0.2533
vn -0.3045 0.2462 -0.9201
vn 0.0405 0.9969 0.0671
vn 0.4651 0.7169 0.5194
vn 0.2840 0.2552 0.9242
vn 0.2224 -0.2854 -0.9322
vn 0.5117 -0.8254 0.2384
vn 0.5666 -0.8102 0.1504
vn 0.0986 -0.3034 -0.9478
vn -0.3616 -0.2723 0.8917
vn -0.1257 0.3550 0.9264
vn -0.3874 -0.8415 0.3765
vn -0.8774 -0.4239 -0.2245
vn -0.7869 -0.1485 0.5989
vn -0.8586 -0.5069 -0.0765
vn -0.1082 0.6074 0.7870
vn 0.8204 0.5387 -0.1917
vn 0.9026 -0.3469 -0.2549
vn 0.4976 -0.3782 -0.7806
vn 0.1406 -0.3342 -0.9320
vn 0.0412 -0.3260 -0.9445
vn 0.8523 -0.4995 0.1555
vn -0.3664 0.2592 0.8936
vn -0.3341 -0.5812 0.7420
vn -0.3336 -0.1287 0.9339
vn -0.2160 -0.6582 0.7212
vn -0.7295 -0.2217 0.6470
vn 0.4389 0.3318 0.8350
vn -0.5512 -0.8029 0.2272
vn -0.1437 0.6834 0.7158
vn 0.8035 -0.1684 0.5709
vn 0.0364 -0.4090 -0.9118
vn -0.9266 -0.2044 -0.3155
vn 0.7903 0.3622 0.4941
vn 0.6154 -0.7046 -0.3533
vn -0.7202 -0.6317 -0.2868
vn -0.8321 0.5508 0.0643
vn -0.1941 0.7831 -0.5908
vn -0.7785 -0.0658 -0.6242
vn 0.8689 -0.1896 -0.4572
vn 0.1895 0.4935 0.8488
vn 0.0829 0.3085 0.9476
vn 0.4980 0.1568 0.8529
vn 0.0534 0.9383 -0.3417
vn 0.0019 0.6965 0.7175
vn -0.1214 0.3698 0.9212
vn 0.8832 0.2701 -0.3835
vn 0.7866 -0.5525 -0.2755
vn 0.1304 -0.4089 -0.9032
vn -0.1356 -0.0066 0.9907
vn 0.0241 -0.9994 -0.0245
s 1
f 65/1/1 99/2/2 98/3/3 66/4/4
f 91/5/5 90/6/6 96/7/7 75/8/8
f 90/9/6 97/10/9 100/11/10 96/12/7
f 59/13/11 58/14/12 111/15/13
f 58/14/12 112/16/14 111/15/13
f 58/17/12 43/18/15 115/19/16
f 58/17/12 115/19/16 112/20/14
f 74/21/17 103/22/18 91/5/5 75/8/8
f 115/19/16 43/18/15 42/23/19 124/24/20
f 124/25/20 42/26/19 59/13/11 111/15/13
f 103/27/18 74/28/17 100/11/10 97/10/9
f 46/29/21 47/30/22 48/31/23 49/32/24
f 49/32/24 50/33/25 51/34/26 46/29/21
f 50/35/25 49/36/24 48/37/23 52/38/27
f 48/39/23 47/40/22 53/41/28 52/42/27
f 60/43/29 61/44/30 62/45/31 63/46/32
f 61/44/30 46/29/21 51/34/26 62/45/31
f 53/41/28 47/40/22 60/47/29 63/46/32
f 63/46/32 62/48/31 51/49/26 53/41/28
f 60/43/29 47/30/22 46/29/21 61/44/30
f 52/42/27 53/41/28 51/49/26 50/50/25
f 16/51/33 17/52/34 18/53/35 19/54/36
f 20/55/37 19/56/36 18/57/35 21/58/38
f 22/59/39 23/60/40 17/52/34 16/51/33
f 20/55/37 21/58/38 23/61/40 22/62/39
f 18/63/41 14/64/42 8/65/43 24/66/44
f 25/67/45 15/68/46 14/69/42 18/70/41
f 15/68/46 25/67/45 26/71/47 7/72/48
f 8/65/43 7/73/48 26/74/47 24/66/44
f 81/75/49 82/76/50 23/61/51 21/58/52
f 83/77/53 84/78/54 26/71/55 25/67/56
f 18/63/57 24/66/58 21/58/52
f 17/52/59 25/67/56 18/53/60
f 25/67/56 109/79/61 83/77/53
f 81/75/49 21/58/52 110/80/62
f 26/74/55 84/81/54 122/82/63 24/66/58
f 21/58/52 24/66/58 122/82/63 110/80/62
f 17/52/59 23/60/51 82/83/50 106/84/64
f 25/67/56 17/52/59 106/84/64 109/79/61
f 68/85/65 69/86/66 70/87/67
f 74/88/17 76/89/68 73/90/69
f 73/91/69 40/92/70 87/93/71
f 88/94/72 89/95/73 82/76/50 81/75/49
f 70/87/67 92/96/74 93/97/75 94/98/76
f 68/99/65 101/100/77 102/101/78
f 82/83/50 89/102/73 105/103/79 106/84/64
f 107/104/80 108/105/81 76/89/68
f 96/106/7 107/104/80 76/89/68 75/107/8
f 68/99/65 84/78/54 83/77/53 101/100/77
f 113/108/82 73/91/69 87/93/71 114/109/83
f 116/110/84 114/109/83 102/101/78 101/100/77
f 73/111/69 117/112/85 40/92/70
f 93/97/75 92/96/74 108/105/81 88/94/72
f 68/113/65 102/101/78 119/114/86
f 105/103/79 89/102/73 107/115/80 113/108/82
f 93/97/75 88/94/72 81/75/49 110/80/62
f 109/79/61 116/110/84 101/100/77 83/77/53
f 114/109/83 87/93/71 118/116/87
f 120/117/88 64/118/89 121/119/90
f 118/116/87 64/118/89 120/117/88
f 84/81/54 68/120/65 94/98/76 122/82/63
f 121/121/90 64/122/89 41/123/91 123/124/92
f 68/85/65 115/125/16 69/86/66
f 94/98/76 93/97/75 110/80/62 122/82/63
f 94/98/76 68/120/65 70/87/67
f 41/126/91 117/112/85 108/105/81 92/96/74
f 68/113/65 119/114/86 111/127/13 112/128/14
f 88/94/72 108/105/81 89/95/73
f 124/129/20 69/86/66 115/125/16
f 113/108/82 114/109/83 116/110/84 105/103/79
f 70/87/67 123/124/92 41/123/91 92/96/74
f 74/130/17 73/131/69 113/132/82 100/133/10
f 114/109/83 118/116/87 120/117/88 102/101/78
f 108/105/81 73/111/69 76/89/68
f 41/126/91 40/134/70 117/112/85
f 121/121/90 69/86/66 125/135/93
f 125/136/93 119/114/86 121/119/90
f 121/121/90 123/124/92 70/87/67 69/86/66
f 105/103/79 116/110/84 109/79/61 106/84/64
f 96/137/7 100/133/10 113/132/82 107/115/80
f 125/136/93 124/138/20 111/127/13 119/114/86
f 120/117/88 121/119/90 119/114/86 102/101/78
f 124/129/20 125/135/93 69/86/66
f 108/105/81 117/112/85 73/111/69
f 74/88/17 75/107/8 76/89/68
f 107/104/80 89/95/73 108/105/81
f 68/85/65 112/139/14 115/125/16
f 1/140/94 2/141/95 3/142/96 4/143/97
f 5/144/98 6/145/99 7/146/100 8/147/101
f 9/148/102 6/149/99 1/140/94
f 3/150/96 10/151/103 11/152/104 4/153/97
f 12/154/105 13/155/106 9/148/102
f 9/148/102 13/155/106 14/156/107 15/157/108
f 9/158/102 1/140/94 4/153/97 11/152/104
f 6/145/99 5/144/98 2/159/95 1/160/94
f 13/161/106 12/162/105 2/159/95 5/144/98
f 10/151/103 12/154/105 9/158/102 11/152/104
f 14/163/107 13/161/106 5/144/98 8/147/101
f 3/150/96 2/141/95 12/154/105 10/151/103
f 6/149/99 9/148/102 15/157/108 7/164/100
f 27/165/109 28/166/110 29/167/111 30/168/112
f 20/169/113 30/168/112 29/167/111 19/170/114
f 31/171/115 32/172/116 33/173/117 34/174/118
f 32/172/116 35/175/119 33/176/117
f 32/177/116 31/178/115 36/179/120 27/180/109
f 22/181/121 35/182/119 30/168/112 20/169/113
f 32/177/116 27/165/109 30/168/112 35/182/119
f 29/183/111 33/176/117 16/184/122 19/185/114
f 36/179/120 31/171/115 34/174/118 37/186/123
f 28/187/110 27/180/109 36/179/120 37/186/123
f 33/176/117 35/175/119 22/188/121 16/184/122
f 28/187/110 33/176/117 29/183/111
f 33/173/117 28/187/110 37/186/123 34/174/118
f 38/189/124 39/190/125 40/191/70 41/192/91
f 42/23/19 43/18/15 44/193/126 45/194/127
f 54/195/128 55/196/129 56/197/130 57/198/131
f 57/198/131 58/14/12 59/13/11 54/195/128
f 64/199/89 65/200/1 66/201/4 67/202/132
f 71/203/133 56/204/130 55/205/129 72/206/134
f 77/207/135 78/208/136 79/209/137 80/210/138
f 58/17/12 57/211/131 44/193/126 43/18/15
f 85/212/139 78/208/136 77/207/135 86/213/140
f 80/210/138 79/209/137 90/6/6 91/5/5
f 72/214/134 55/196/129 54/195/128 45/215/127
f 79/216/137 78/217/136 85/218/139 95/219/141
f 97/10/9 90/9/6 79/216/137 95/219/141
f 98/220/3 99/221/2 40/222/70 39/223/125
f 80/210/138 91/5/5 103/22/18 104/224/142
f 57/211/131 56/204/130 71/203/133 44/193/126
f 99/221/2 87/93/71 40/225/70
f 64/226/89 118/227/87 65/228/1
f 104/229/142 103/27/18 97/10/9 95/219/141
f 86/230/140 104/229/142 95/219/141 85/218/139
f 65/200/1 118/116/87 87/93/71 99/221/2
f 64/231/89 67/232/132 38/233/124 41/234/91
f 71/203/133 72/206/134 45/194/127 44/193/126
f 104/224/142 86/213/140 77/207/135 80/210/138
f 45/215/127 54/195/128 59/13/11 42/26/19
f 66/4/4 126/235/143 67/202/132
f 66/4/4 98/3/3 126/235/143
f 39/190/125 38/233/124 67/202/132 126/235/143
f 98/3/3 39/190/125 126/235/143
