# Blender v2.78 (sub 0) OBJ File: ''
# www.blender.org
mtllib ANORM2.mtl
o Sphere
v 0.000000 0.980785 -0.195090
v 0.000000 0.923880 -0.382683
v 0.000000 0.831470 -0.555570
v 0.000000 0.555570 -0.831470
v 0.000000 0.382683 -0.923880
v 0.000000 0.000000 -1.000000
v 0.000000 -0.382683 -0.923880
v 0.000000 -0.555570 -0.831470
v 0.000000 -0.831470 -0.555570
v 0.000000 -0.923880 -0.382683
v 0.074658 0.980785 -0.180240
v 0.146447 0.923880 -0.353553
v 0.212608 0.831470 -0.513280
v 0.270598 0.707107 -0.653281
v 0.318190 0.555570 -0.768178
v 0.353554 0.382683 -0.853553
v 0.375330 0.195090 -0.906127
v 0.382684 0.000000 -0.923880
v 0.375330 -0.195090 -0.906127
v 0.353554 -0.382683 -0.853553
v 0.318190 -0.555570 -0.768178
v 0.270598 -0.707107 -0.653281
v 0.212608 -0.831470 -0.513280
v 0.146447 -0.923880 -0.353553
v 0.074658 -0.980785 -0.180240
v 0.137950 0.980785 -0.137950
v 0.270598 0.923880 -0.270598
v 0.392848 0.831470 -0.392847
v 0.500000 0.707107 -0.500000
v 0.587938 0.555570 -0.587938
v 0.653282 0.382683 -0.653281
v 0.693520 0.195090 -0.693520
v 0.707107 0.000000 -0.707107
v 0.693520 -0.195090 -0.693520
v 0.653282 -0.382683 -0.653281
v 0.587938 -0.555570 -0.587938
v 0.500000 -0.707107 -0.500000
v 0.392848 -0.831470 -0.392847
v 0.270598 -0.923880 -0.270598
v 0.137950 -0.980785 -0.137949
v 0.180240 0.980785 -0.074658
v 0.353554 0.923880 -0.146446
v 0.513280 0.831470 -0.212607
v 0.653282 0.707107 -0.270598
v 0.768178 0.555570 -0.318189
v 0.853554 0.382683 -0.353553
v 0.906128 0.195090 -0.375330
v 0.923880 0.000000 -0.382683
v 0.906128 -0.195090 -0.375330
v 0.853554 -0.382683 -0.353553
v 0.768178 -0.555570 -0.318189
v 0.653282 -0.707107 -0.270598
v 0.513280 -0.831470 -0.212607
v 0.353554 -0.923880 -0.146446
v 0.180240 -0.980785 -0.074658
v 0.195091 0.980785 0.000000
v 0.382684 0.923880 0.000000
v 0.555571 0.831470 0.000000
v 0.707107 0.707107 0.000000
v 0.831470 0.555570 0.000000
v 0.923880 0.382683 0.000000
v 0.980786 0.195090 0.000000
v 1.000000 0.000000 0.000000
v 0.980786 -0.195090 0.000000
v 0.923880 -0.382683 0.000000
v 0.831470 -0.555570 0.000000
v 0.707107 -0.707107 0.000000
v 0.555570 -0.831470 0.000000
v 0.382684 -0.923880 0.000000
v 0.195090 -0.980785 0.000000
v 0.180240 0.980785 0.074658
v 0.353554 0.923880 0.146447
v 0.513280 0.831470 0.212608
v 0.653282 0.707107 0.270599
v 0.768178 0.555570 0.318190
v 0.853554 0.382683 0.353554
v 0.906128 0.195090 0.375331
v 0.923880 0.000000 0.382684
v 0.906128 -0.195090 0.375331
v 0.853554 -0.382683 0.353554
v 0.768178 -0.555570 0.318190
v 0.653282 -0.707107 0.270599
v 0.513280 -0.831470 0.212608
v 0.353553 -0.923880 0.146447
v 0.180240 -0.980785 0.074658
v 0.137950 0.980785 0.137950
v 0.270598 0.923880 0.270599
v 0.392848 0.831470 0.392848
v 0.500000 0.707107 0.500000
v 0.587938 0.555570 0.587938
v 0.653282 0.382683 0.653282
v 0.693520 0.195090 0.693520
v 0.707107 0.000000 0.707107
v 0.693520 -0.195090 0.693520
v 0.653282 -0.382683 0.653282
v 0.587938 -0.555570 0.587938
v 0.500000 -0.707107 0.500000
v 0.392848 -0.831470 0.392848
v 0.270598 -0.923880 0.270599
v 0.137950 -0.980785 0.137950
v 0.074658 0.980785 0.180241
v 0.146447 0.923880 0.353554
v 0.212608 0.831470 0.513281
v 0.270598 0.707107 0.653282
v 0.318190 0.555570 0.768178
v 0.353553 0.382683 0.853554
v 0.375330 0.195090 0.906128
v 0.382683 0.000000 0.923880
v 0.375330 -0.195090 0.906128
v 0.353553 -0.382683 0.853554
v 0.318190 -0.555570 0.768178
v 0.270598 -0.707107 0.653282
v 0.212607 -0.831470 0.513281
v 0.146447 -0.923880 0.353554
v 0.074658 -0.980785 0.180240
v -0.000000 0.980785 0.195091
v -0.000000 0.923880 0.382684
v -0.000000 0.831470 0.555571
v -0.000000 0.707107 0.707107
v -0.000000 0.555570 0.831470
v -0.000000 0.382683 0.923880
v -0.000000 0.195090 0.980786
v -0.000000 0.000000 1.000000
v -0.000000 -0.195090 0.980786
v -0.000000 -0.382683 0.923880
v -0.000000 -0.555570 0.831470
v -0.000000 -0.707107 0.707107
v -0.000000 -0.831470 0.555571
v -0.000000 -0.923880 0.382684
v -0.000000 -0.980785 0.195091
v -0.000000 1.000000 0.000001
v -0.074658 0.980785 0.180241
v -0.146447 0.923880 0.353554
v -0.212608 0.831470 0.513280
v -0.270598 0.707107 0.653282
v -0.318190 0.555570 0.768178
v -0.353554 0.382683 0.853554
v -0.375330 0.195090 0.906128
v -0.382684 0.000000 0.923880
v -0.375330 -0.195090 0.906128
v -0.353554 -0.382683 0.853554
v -0.318190 -0.555570 0.768178
v -0.270598 -0.707107 0.653282
v -0.212608 -0.831470 0.513280
v -0.146447 -0.923880 0.353554
v -0.074658 -0.980785 0.180240
v 0.000000 -1.000000 0.000000
v -0.137950 0.980785 0.137950
v -0.270598 0.923880 0.270598
v -0.392848 0.831470 0.392848
v -0.500000 0.707107 0.500000
v -0.587938 0.555570 0.587938
v -0.653282 0.382683 0.653282
v -0.693520 0.195090 0.693520
v -0.707107 0.000000 0.707107
v -0.693520 -0.195090 0.693520
v -0.653282 -0.382683 0.653282
v -0.587938 -0.555570 0.587938
v -0.500000 -0.707107 0.500000
v -0.392848 -0.831470 0.392848
v -0.270598 -0.923880 0.270598
v -0.137950 -0.980785 0.137950
v -0.180240 0.980785 0.074658
v -0.353554 0.923880 0.146447
v -0.513280 0.831470 0.212608
v -0.653282 0.707107 0.270598
v -0.768178 0.555570 0.318190
v -0.853554 0.382683 0.353553
v -0.906127 0.195090 0.375330
v -0.923880 0.000000 0.382683
v -0.906127 -0.195090 0.375330
v -0.853554 -0.382683 0.353553
v -0.768178 -0.555570 0.318190
v -0.653282 -0.707107 0.270598
v -0.513280 -0.831470 0.212608
v -0.353554 -0.923880 0.146447
v -0.180240 -0.980785 0.074658
v -0.195091 0.980785 0.000000
v -0.382684 0.923880 0.000000
v -0.555570 0.831470 0.000000
v -0.707107 0.707107 0.000000
v -0.831470 0.555570 -0.000000
v -0.923880 0.382683 -0.000000
v -0.980785 0.195090 0.000000
v -1.000000 0.000000 -0.000000
v -0.980785 -0.195090 0.000000
v -0.923880 -0.382683 -0.000000
v -0.831470 -0.555570 -0.000000
v -0.707107 -0.707107 0.000000
v -0.555570 -0.831470 0.000000
v -0.382684 -0.923880 0.000000
v -0.195090 -0.980785 0.000000
v -0.180240 0.980785 -0.074658
v -0.353554 0.923880 -0.146446
v -0.513280 0.831470 -0.212608
v -0.653281 0.707107 -0.270598
v -0.768178 0.555570 -0.318190
v -0.853553 0.382683 -0.353553
v -0.906127 0.195090 -0.375330
v -0.923880 0.000000 -0.382684
v -0.906127 -0.195090 -0.375330
v -0.853553 -0.382683 -0.353553
v -0.768178 -0.555570 -0.318190
v -0.653281 -0.707107 -0.270598
v -0.513280 -0.831470 -0.212608
v -0.353553 -0.923880 -0.146447
v -0.180240 -0.980785 -0.074658
v -0.137950 0.980785 -0.137950
v -0.270598 0.923880 -0.270598
v -0.392847 0.831470 -0.392847
v -0.500000 0.707107 -0.500000
v -0.587937 0.555570 -0.587938
v -0.653281 0.382683 -0.653282
v -0.693520 0.195090 -0.693520
v -0.707107 0.000000 -0.707107
v -0.693520 -0.195090 -0.693520
v -0.653281 -0.382683 -0.653282
v -0.587937 -0.555570 -0.587938
v -0.500000 -0.707107 -0.500000
v -0.392847 -0.831470 -0.392847
v -0.270598 -0.923880 -0.270598
v -0.137950 -0.980785 -0.137949
v -0.074658 0.980785 -0.180240
v -0.146447 0.923880 -0.353553
v -0.212607 0.831470 -0.513280
v -0.270598 0.707107 -0.653281
v -0.318189 0.555570 -0.768178
v -0.353553 0.382683 -0.853553
v -0.375330 0.195090 -0.906127
v -0.382683 0.000000 -0.923880
v -0.375330 -0.195090 -0.906127
v -0.353553 -0.382683 -0.853553
v -0.318189 -0.555570 -0.768178
v -0.270598 -0.707107 -0.653281
v -0.212607 -0.831470 -0.513280
v -0.146446 -0.923880 -0.353553
v -0.074658 -0.980785 -0.180240
v 0.000000 0.707107 -0.707106
v 0.000000 0.195090 -0.980785
v 0.000000 -0.195090 -0.980785
v 0.000000 -0.707107 -0.707106
v 0.000000 -0.980785 -0.195090
vn 0.0195 0.9950 -0.0980
vn 0.0195 -0.9950 -0.0980
vn 0.1942 -0.0962 -0.9762
vn 0.0576 0.9553 -0.2898
vn 0.1870 -0.2852 -0.9401
vn 0.0934 0.8781 -0.4693
vn 0.1728 -0.4643 -0.8687
vn 0.1252 0.7669 -0.6294
vn 0.1520 -0.6270 -0.7640
vn 0.1520 0.6270 -0.7640
vn 0.1252 -0.7669 -0.6294
vn 0.1728 0.4643 -0.8687
vn 0.0934 -0.8781 -0.4693
vn 0.1870 0.2852 -0.9401
vn 0.0576 -0.9553 -0.2898
vn 0.1942 0.0962 -0.9762
vn 0.1642 -0.9553 -0.2457
vn 0.5530 0.0962 -0.8276
vn 0.0555 0.9950 -0.0831
vn 0.0555 -0.9950 -0.0831
vn 0.5530 -0.0962 -0.8276
vn 0.1642 0.9553 -0.2457
vn 0.5325 -0.2852 -0.7969
vn 0.2659 0.8781 -0.3979
vn 0.4921 -0.4643 -0.7364
vn 0.3565 0.7669 -0.5336
vn 0.4328 -0.6270 -0.6477
vn 0.4328 0.6270 -0.6477
vn 0.3565 -0.7669 -0.5336
vn 0.4921 0.4643 -0.7364
vn 0.2659 -0.8781 -0.3979
vn 0.5325 0.2852 -0.7969
vn 0.5336 0.7669 -0.3565
vn 0.6477 -0.6270 -0.4328
vn 0.6477 0.6270 -0.4328
vn 0.5336 -0.7669 -0.3565
vn 0.7364 0.4643 -0.4921
vn 0.3979 -0.8781 -0.2659
vn 0.7969 0.2852 -0.5325
vn 0.2457 -0.9553 -0.1642
vn 0.8276 0.0962 -0.5530
vn 0.0831 0.9950 -0.0555
vn 0.0831 -0.9950 -0.0555
vn 0.8276 -0.0962 -0.5530
vn 0.2457 0.9553 -0.1642
vn 0.7969 -0.2852 -0.5325
vn 0.3979 0.8781 -0.2659
vn 0.7364 -0.4643 -0.4921
vn 0.9762 0.0962 -0.1942
vn 0.0980 0.9950 -0.0195
vn 0.0980 -0.9950 -0.0195
vn 0.9762 -0.0962 -0.1942
vn 0.2898 0.9553 -0.0576
vn 0.9401 -0.2852 -0.1870
vn 0.4693 0.8781 -0.0934
vn 0.8687 -0.4643 -0.1728
vn 0.6294 0.7669 -0.1252
vn 0.7640 -0.6270 -0.1520
vn 0.7640 0.6270 -0.1520
vn 0.6294 -0.7669 -0.1252
vn 0.8687 0.4643 -0.1728
vn 0.4693 -0.8781 -0.0934
vn 0.9401 0.2852 -0.1870
vn 0.2898 -0.9553 -0.0576
vn 0.7640 -0.6270 0.1520
vn 0.7640 0.6270 0.1520
vn 0.6294 -0.7669 0.1252
vn 0.8687 0.4643 0.1728
vn 0.4693 -0.8781 0.0934
vn 0.9401 0.2852 0.1870
vn 0.2898 -0.9553 0.0576
vn 0.9762 0.0962 0.1942
vn 0.0980 0.9950 0.0195
vn 0.0980 -0.9950 0.0195
vn 0.9762 -0.0962 0.1942
vn 0.2898 0.9553 0.0576
vn 0.9401 -0.2852 0.1870
vn 0.4693 0.8781 0.0934
vn 0.8687 -0.4643 0.1728
vn 0.6294 0.7669 0.1252
vn 0.0831 0.9950 0.0555
vn 0.0831 -0.9950 0.0555
vn 0.8276 -0.0962 0.5530
vn 0.2457 0.9553 0.1642
vn 0.7969 -0.2852 0.5325
vn 0.3979 0.8781 0.2659
vn 0.7364 -0.4643 0.4921
vn 0.5336 0.7669 0.3565
vn 0.6477 -0.6270 0.4328
vn 0.6477 0.6270 0.4328
vn 0.5336 -0.7669 0.3565
vn 0.7364 0.4643 0.4921
vn 0.3979 -0.8781 0.2659
vn 0.7969 0.2852 0.5325
vn 0.2457 -0.9553 0.1642
vn 0.8276 0.0962 0.5530
vn 0.4328 0.6270 0.6477
vn 0.3565 -0.7669 0.5336
vn 0.4921 0.4643 0.7364
vn 0.2659 -0.8781 0.3979
vn 0.5325 0.2852 0.7969
vn 0.1642 -0.9553 0.2457
vn 0.5530 0.0962 0.8276
vn 0.0555 0.9950 0.0831
vn 0.0555 -0.9950 0.0831
vn 0.5530 -0.0962 0.8276
vn 0.1642 0.9553 0.2457
vn 0.5325 -0.2852 0.7969
vn 0.2659 0.8781 0.3979
vn 0.4921 -0.4643 0.7364
vn 0.3565 0.7669 0.5336
vn 0.4328 -0.6270 0.6477
vn 0.1942 -0.0962 0.9762
vn 0.0576 0.9553 0.2898
vn 0.1870 -0.2852 0.9401
vn 0.0934 0.8781 0.4693
vn 0.1728 -0.4643 0.8687
vn 0.1252 0.7669 0.6294
vn 0.1520 -0.6270 0.7640
vn 0.1520 0.6270 0.7640
vn 0.1252 -0.7669 0.6294
vn 0.1728 0.4643 0.8687
vn 0.0934 -0.8781 0.4693
vn 0.1870 0.2852 0.9401
vn 0.0576 -0.9553 0.2898
vn 0.1942 0.0962 0.9762
vn 0.0195 0.9950 0.0980
vn 0.0195 -0.9950 0.0980
vn -0.1252 -0.7669 0.6294
vn -0.1728 0.4643 0.8687
vn -0.0934 -0.8781 0.4693
vn -0.1870 0.2852 0.9401
vn -0.0576 -0.9553 0.2898
vn -0.1942 0.0962 0.9762
vn -0.0195 0.9950 0.0980
vn -0.0195 -0.9950 0.0980
vn -0.1942 -0.0962 0.9762
vn -0.0576 0.9553 0.2898
vn -0.1870 -0.2852 0.9401
vn -0.0934 0.8781 0.4693
vn -0.1728 -0.4643 0.8687
vn -0.1252 0.7669 0.6294
vn -0.1520 -0.6270 0.7640
vn -0.1520 0.6270 0.7640
vn -0.5325 -0.2852 0.7969
vn -0.2659 0.8781 0.3979
vn -0.4921 -0.4643 0.7364
vn -0.3565 0.7669 0.5336
vn -0.4328 -0.6270 0.6477
vn -0.4328 0.6270 0.6477
vn -0.3565 -0.7669 0.5336
vn -0.4921 0.4643 0.7364
vn -0.2659 -0.8781 0.3979
vn -0.5325 0.2852 0.7969
vn -0.1642 -0.9553 0.2457
vn -0.5530 0.0962 0.8276
vn -0.0555 0.9950 0.0831
vn -0.0555 -0.9950 0.0831
vn -0.5530 -0.0962 0.8276
vn -0.1642 0.9553 0.2457
vn -0.3979 -0.8781 0.2659
vn -0.7969 0.2852 0.5325
vn -0.2457 -0.9553 0.1642
vn -0.8276 0.0962 0.5530
vn -0.0831 0.9950 0.0555
vn -0.0831 -0.9950 0.0555
vn -0.8276 -0.0962 0.5530
vn -0.2457 0.9553 0.1642
vn -0.7969 -0.2852 0.5325
vn -0.3979 0.8781 0.2659
vn -0.7364 -0.4643 0.4921
vn -0.5336 0.7669 0.3565
vn -0.6477 -0.6270 0.4328
vn -0.6477 0.6270 0.4328
vn -0.5336 -0.7669 0.3565
vn -0.7364 0.4643 0.4921
vn -0.4693 0.8781 0.0934
vn -0.8687 -0.4643 0.1728
vn -0.6294 0.7669 0.1252
vn -0.7640 -0.6270 0.1520
vn -0.7640 0.6270 0.1520
vn -0.6294 -0.7669 0.1252
vn -0.8687 0.4643 0.1728
vn -0.4693 -0.8781 0.0934
vn -0.9401 0.2852 0.1870
vn -0.2898 -0.9553 0.0576
vn -0.9762 0.0962 0.1942
vn -0.0980 0.9950 0.0195
vn -0.0980 -0.9950 0.0195
vn -0.9762 -0.0962 0.1942
vn -0.2898 0.9553 0.0576
vn -0.9401 -0.2852 0.1870
vn -0.9401 0.2852 -0.1870
vn -0.2898 -0.9553 -0.0576
vn -0.9762 0.0962 -0.1942
vn -0.0980 0.9950 -0.0195
vn -0.0980 -0.9950 -0.0195
vn -0.9762 -0.0962 -0.1942
vn -0.2898 0.9553 -0.0576
vn -0.9401 -0.2852 -0.1870
vn -0.4693 0.8781 -0.0934
vn -0.8687 -0.4643 -0.1728
vn -0.6294 0.7669 -0.1252
vn -0.7640 -0.6270 -0.1520
vn -0.7640 0.6270 -0.1520
vn -0.6294 -0.7669 -0.1252
vn -0.8687 0.4643 -0.1728
vn -0.4693 -0.8781 -0.0934
vn -0.7364 -0.4643 -0.4921
vn -0.5336 0.7669 -0.3565
vn -0.6477 -0.6270 -0.4328
vn -0.6477 0.6270 -0.4328
vn -0.5336 -0.7669 -0.3565
vn -0.7364 0.4643 -0.4921
vn -0.3979 -0.8781 -0.2659
vn -0.7969 0.2852 -0.5325
vn -0.2457 -0.9553 -0.1642
vn -0.8276 0.0962 -0.5530
vn -0.0831 0.9950 -0.0555
vn -0.0831 -0.9950 -0.0555
vn -0.8276 -0.0962 -0.5530
vn -0.2457 0.9553 -0.1642
vn -0.7969 -0.2852 -0.5325
vn -0.3979 0.8781 -0.2659
vn -0.1642 -0.9553 -0.2457
vn -0.5530 0.0962 -0.8276
vn -0.0555 0.9950 -0.0831
vn -0.0555 -0.9950 -0.0831
vn -0.5530 -0.0962 -0.8276
vn -0.1642 0.9553 -0.2457
vn -0.5325 -0.2852 -0.7969
vn -0.2659 0.8781 -0.3979
vn -0.4921 -0.4643 -0.7364
vn -0.3565 0.7669 -0.5336
vn -0.4328 -0.6270 -0.6477
vn -0.4328 0.6270 -0.6477
vn -0.3565 -0.7669 -0.5336
vn -0.4921 0.4643 -0.7364
vn -0.2659 -0.8781 -0.3979
vn -0.5325 0.2852 -0.7969
vn -0.1252 0.7669 -0.6294
vn -0.1520 -0.6270 -0.7640
vn -0.1520 0.6270 -0.7640
vn -0.1252 -0.7669 -0.6294
vn -0.1728 0.4643 -0.8687
vn -0.0934 -0.8781 -0.4693
vn -0.1870 0.2852 -0.9401
vn -0.0576 -0.9553 -0.2898
vn -0.1942 0.0962 -0.9762
vn -0.0195 0.9950 -0.0980
vn -0.0195 -0.9950 -0.0980
vn -0.1942 -0.0962 -0.9762
vn -0.0576 0.9553 -0.2898
vn -0.1870 -0.2852 -0.9401
vn -0.0934 0.8781 -0.4693
vn -0.1728 -0.4643 -0.8687
usemtl None
s off
f 1//1 131//1 11//1
f 147//2 242//2 25//2
f 240//3 6//3 18//3 19//3
f 2//4 1//4 11//4 12//4
f 7//5 240//5 19//5 20//5
f 3//6 2//6 12//6 13//6
f 8//7 7//7 20//7 21//7
f 238//8 3//8 13//8 14//8
f 241//9 8//9 21//9 22//9
f 4//10 238//10 14//10 15//10
f 9//11 241//11 22//11 23//11
f 5//12 4//12 15//12 16//12
f 10//13 9//13 23//13 24//13
f 239//14 5//14 16//14 17//14
f 242//15 10//15 24//15 25//15
f 6//16 239//16 17//16 18//16
f 25//17 24//17 39//17 40//17
f 18//18 17//18 32//18 33//18
f 11//19 131//19 26//19
f 147//20 25//20 40//20
f 19//21 18//21 33//21 34//21
f 12//22 11//22 26//22 27//22
f 20//23 19//23 34//23 35//23
f 13//24 12//24 27//24 28//24
f 21//25 20//25 35//25 36//25
f 14//26 13//26 28//26 29//26
f 22//27 21//27 36//27 37//27
f 15//28 14//28 29//28 30//28
f 23//29 22//29 37//29 38//29
f 16//30 15//30 30//30 31//30
f 24//31 23//31 38//31 39//31
f 17//32 16//32 31//32 32//32
f 29//33 28//33 43//33 44//33
f 37//34 36//34 51//34 52//34
f 30//35 29//35 44//35 45//35
f 38//36 37//36 52//36 53//36
f 31//37 30//37 45//37 46//37
f 39//38 38//38 53//38 54//38
f 32//39 31//39 46//39 47//39
f 40//40 39//40 54//40 55//40
f 33//41 32//41 47//41 48//41
f 26//42 131//42 41//42
f 147//43 40//43 55//43
f 34//44 33//44 48//44 49//44
f 27//45 26//45 41//45 42//45
f 35//46 34//46 49//46 50//46
f 28//47 27//47 42//47 43//47
f 36//48 35//48 50//48 51//48
f 48//49 47//49 62//49 63//49
f 41//50 131//50 56//50
f 147//51 55//51 70//51
f 49//52 48//52 63//52 64//52
f 42//53 41//53 56//53 57//53
f 50//54 49//54 64//54 65//54
f 43//55 42//55 57//55 58//55
f 51//56 50//56 65//56 66//56
f 44//57 43//57 58//57 59//57
f 52//58 51//58 66//58 67//58
f 45//59 44//59 59//59 60//59
f 53//60 52//60 67//60 68//60
f 46//61 45//61 60//61 61//61
f 54//62 53//62 68//62 69//62
f 47//63 46//63 61//63 62//63
f 55//64 54//64 69//64 70//64
f 67//65 66//65 81//65 82//65
f 60//66 59//66 74//66 75//66
f 68//67 67//67 82//67 83//67
f 61//68 60//68 75//68 76//68
f 69//69 68//69 83//69 84//69
f 62//70 61//70 76//70 77//70
f 70//71 69//71 84//71 85//71
f 63//72 62//72 77//72 78//72
f 56//73 131//73 71//73
f 147//74 70//74 85//74
f 64//75 63//75 78//75 79//75
f 57//76 56//76 71//76 72//76
f 65//77 64//77 79//77 80//77
f 58//78 57//78 72//78 73//78
f 66//79 65//79 80//79 81//79
f 59//80 58//80 73//80 74//80
f 71//81 131//81 86//81
f 147//82 85//82 100//82
f 79//83 78//83 93//83 94//83
f 72//84 71//84 86//84 87//84
f 80//85 79//85 94//85 95//85
f 73//86 72//86 87//86 88//86
f 81//87 80//87 95//87 96//87
f 74//88 73//88 88//88 89//88
f 82//89 81//89 96//89 97//89
f 75//90 74//90 89//90 90//90
f 83//91 82//91 97//91 98//91
f 76//92 75//92 90//92 91//92
f 84//93 83//93 98//93 99//93
f 77//94 76//94 91//94 92//94
f 85//95 84//95 99//95 100//95
f 78//96 77//96 92//96 93//96
f 90//97 89//97 104//97 105//97
f 98//98 97//98 112//98 113//98
f 91//99 90//99 105//99 106//99
f 99//100 98//100 113//100 114//100
f 92//101 91//101 106//101 107//101
f 100//102 99//102 114//102 115//102
f 93//103 92//103 107//103 108//103
f 86//104 131//104 101//104
f 147//105 100//105 115//105
f 94//106 93//106 108//106 109//106
f 87//107 86//107 101//107 102//107
f 95//108 94//108 109//108 110//108
f 88//109 87//109 102//109 103//109
f 96//110 95//110 110//110 111//110
f 89//111 88//111 103//111 104//111
f 97//112 96//112 111//112 112//112
f 109//113 108//113 123//113 124//113
f 102//114 101//114 116//114 117//114
f 110//115 109//115 124//115 125//115
f 103//116 102//116 117//116 118//116
f 111//117 110//117 125//117 126//117
f 104//118 103//118 118//118 119//118
f 112//119 111//119 126//119 127//119
f 105//120 104//120 119//120 120//120
f 113//121 112//121 127//121 128//121
f 106//122 105//122 120//122 121//122
f 114//123 113//123 128//123 129//123
f 107//124 106//124 121//124 122//124
f 115//125 114//125 129//125 130//125
f 108//126 107//126 122//126 123//126
f 101//127 131//127 116//127
f 147//128 115//128 130//128
f 128//129 127//129 143//129 144//129
f 121//130 120//130 136//130 137//130
f 129//131 128//131 144//131 145//131
f 122//132 121//132 137//132 138//132
f 130//133 129//133 145//133 146//133
f 123//134 122//134 138//134 139//134
f 116//135 131//135 132//135
f 147//136 130//136 146//136
f 124//137 123//137 139//137 140//137
f 117//138 116//138 132//138 133//138
f 125//139 124//139 140//139 141//139
f 118//140 117//140 133//140 134//140
f 126//141 125//141 141//141 142//141
f 119//142 118//142 134//142 135//142
f 127//143 126//143 142//143 143//143
f 120//144 119//144 135//144 136//144
f 141//145 140//145 156//145 157//145
f 134//146 133//146 149//146 150//146
f 142//147 141//147 157//147 158//147
f 135//148 134//148 150//148 151//148
f 143//149 142//149 158//149 159//149
f 136//150 135//150 151//150 152//150
f 144//151 143//151 159//151 160//151
f 137//152 136//152 152//152 153//152
f 145//153 144//153 160//153 161//153
f 138//154 137//154 153//154 154//154
f 146//155 145//155 161//155 162//155
f 139//156 138//156 154//156 155//156
f 132//157 131//157 148//157
f 147//158 146//158 162//158
f 140//159 139//159 155//159 156//159
f 133//160 132//160 148//160 149//160
f 161//161 160//161 175//161 176//161
f 154//162 153//162 168//162 169//162
f 162//163 161//163 176//163 177//163
f 155//164 154//164 169//164 170//164
f 148//165 131//165 163//165
f 147//166 162//166 177//166
f 156//167 155//167 170//167 171//167
f 149//168 148//168 163//168 164//168
f 157//169 156//169 171//169 172//169
f 150//170 149//170 164//170 165//170
f 158//171 157//171 172//171 173//171
f 151//172 150//172 165//172 166//172
f 159//173 158//173 173//173 174//173
f 152//174 151//174 166//174 167//174
f 160//175 159//175 174//175 175//175
f 153//176 152//176 167//176 168//176
f 165//177 164//177 179//177 180//177
f 173//178 172//178 187//178 188//178
f 166//179 165//179 180//179 181//179
f 174//180 173//180 188//180 189//180
f 167//181 166//181 181//181 182//181
f 175//182 174//182 189//182 190//182
f 168//183 167//183 182//183 183//183
f 176//184 175//184 190//184 191//184
f 169//185 168//185 183//185 184//185
f 177//186 176//186 191//186 192//186
f 170//187 169//187 184//187 185//187
f 163//188 131//188 178//188
f 147//189 177//189 192//189
f 171//190 170//190 185//190 186//190
f 164//191 163//191 178//191 179//191
f 172//192 171//192 186//192 187//192
f 184//193 183//193 198//193 199//193
f 192//194 191//194 206//194 207//194
f 185//195 184//195 199//195 200//195
f 178//196 131//196 193//196
f 147//197 192//197 207//197
f 186//198 185//198 200//198 201//198
f 179//199 178//199 193//199 194//199
f 187//200 186//200 201//200 202//200
f 180//201 179//201 194//201 195//201
f 188//202 187//202 202//202 203//202
f 181//203 180//203 195//203 196//203
f 189//204 188//204 203//204 204//204
f 182//205 181//205 196//205 197//205
f 190//206 189//206 204//206 205//206
f 183//207 182//207 197//207 198//207
f 191//208 190//208 205//208 206//208
f 203//209 202//209 217//209 218//209
f 196//210 195//210 210//210 211//210
f 204//211 203//211 218//211 219//211
f 197//212 196//212 211//212 212//212
f 205//213 204//213 219//213 220//213
f 198//214 197//214 212//214 213//214
f 206//215 205//215 220//215 221//215
f 199//216 198//216 213//216 214//216
f 207//217 206//217 221//217 222//217
f 200//218 199//218 214//218 215//218
f 193//219 131//219 208//219
f 147//220 207//220 222//220
f 201//221 200//221 215//221 216//221
f 194//222 193//222 208//222 209//222
f 202//223 201//223 216//223 217//223
f 195//224 194//224 209//224 210//224
f 222//225 221//225 236//225 237//225
f 215//226 214//226 229//226 230//226
f 208//227 131//227 223//227
f 147//228 222//228 237//228
f 216//229 215//229 230//229 231//229
f 209//230 208//230 223//230 224//230
f 217//231 216//231 231//231 232//231
f 210//232 209//232 224//232 225//232
f 218//233 217//233 232//233 233//233
f 211//234 210//234 225//234 226//234
f 219//235 218//235 233//235 234//235
f 212//236 211//236 226//236 227//236
f 220//237 219//237 234//237 235//237
f 213//238 212//238 227//238 228//238
f 221//239 220//239 235//239 236//239
f 214//240 213//240 228//240 229//240
f 226//241 225//241 3//241 238//241
f 234//242 233//242 8//242 241//242
f 227//243 226//243 238//243 4//243
f 235//244 234//244 241//244 9//244
f 228//245 227//245 4//245 5//245
f 236//246 235//246 9//246 10//246
f 229//247 228//247 5//247 239//247
f 237//248 236//248 10//248 242//248
f 230//249 229//249 239//249 6//249
f 223//250 131//250 1//250
f 147//251 237//251 242//251
f 231//252 230//252 6//252 240//252
f 224//253 223//253 1//253 2//253
f 232//254 231//254 240//254 7//254
f 225//255 224//255 2//255 3//255
f 233//256 232//256 7//256 8//256
